<svg id="dribble" viewBox="0 0 69.6 69.6" width="100%" height="100%">
    <path d="M34.8 69.6a34.8 34.8 0 1 1 34.8-34.8 34.84 34.84 0 0 1-34.8 34.8zm29.35-30a43.57 43.57 0 0 0-18.52-1.27 128.4 128.4 0 0 1 5.78 21.19 29.75 29.75 0 0 0 12.73-19.95zM46.41 62.21a123.77 123.77 0 0 0-6.34-22.54l-.2.06C23.11 45.58 17.09 57.2 16.55 58.29a29.67 29.67 0 0 0 29.86 3.91zm-33.7-7.49c.67-1.15 8.83-14.66 24.16-19.62l1.13-.35c-.75-1.69-1.56-3.38-2.41-5a109.61 109.61 0 0 1-30.5 4.19v.91a29.61 29.61 0 0 0 7.64 19.88zm-7-26a110.9 110.9 0 0 0 27.48-3.62 188.74 188.74 0 0 0-11-17.19A29.83 29.83 0 0 0 5.7 28.75zM27.83 5.95a158.34 158.34 0 0 1 11.09 17.4c10.57-4 15-10 15.58-10.74a29.65 29.65 0 0 0-26.67-6.66zm30 10.1c-.62.84-5.6 7.23-16.59 11.72.69 1.42 1.35 2.86 2 4.31.22.51.43 1 .64 1.53a69.55 69.55 0 0 1 20.7 1 29.57 29.57 0 0 0-6.78-18.56z">
    </path>
</svg>