<svg id="Layer_1" xmlns="http://www.w3.org/2000/svg" viewBox="0 0 128 128"><style>.st0{fill:#fbfbf8}</style><circle class="st0" cx="64" cy="64" r="55"/><circle cx="64" cy="64" r="53" fill="#fb004c"/><path class="st0" d="M52.1 41.5c-11.9 0-21.4 10.1-21.4 22.5s9.5 22.5 21.4 22.5S73.5 76.4 73.5 64c0-1.5-.2-3.1-.4-4.5L73 59H52.1v7.5h14.3C65.2 73.6 59.2 79 52.1 79c-7.9 0-14.3-6.8-14.3-15s6.4-15 14.3-15c3.6 0 6.8 1.4 9.4 3.7l5.1-5.2c-3.9-3.7-8.9-6-14.5-6zm33.3 10V59h-7.1v5h7.1v7.5h4.8V64h7.1v-5h-7.1v-7.5h-4.8z" id="surface1"/></svg>