<svg id="Layer_1" xmlns="http://www.w3.org/2000/svg" viewBox="0 0 128 128"><style>.st2{fill:none;stroke:#fff;stroke-width:4;stroke-miterlimit:10}</style><circle cx="64" cy="64" r="55" fill="#fbfbf8"/><circle cx="64" cy="64" r="53" fill="#fb004c"/><path class="st2" d="M74.1 89H53.9C45.7 89 39 82.3 39 74.1V53.9C39 45.7 45.7 39 53.9 39h20.3C82.3 39 89 45.7 89 53.9v20.3C89 82.3 82.3 89 74.1 89z"/><circle cx="77.9" cy="49.9" r="2.3" fill="#fff" stroke="#fff" stroke-miterlimit="10"/><path class="st2" d="M64.5 76.5h-1c-6.6 0-12-5.4-12-12v-1c0-6.6 5.4-12 12-12h1c6.6 0 12 5.4 12 12v1c0 6.6-5.4 12-12 12z"/></svg>