<svg id="Слой_1" xmlns="http://www.w3.org/2000/svg" viewBox="0 0 21.5 20.5"><style>.st0{fill:#273238}</style><path class="st0" d="M20.4 0H1.2C.4 0 .1.4.1 1.3v18c0 .8.4 1.2 1.1 1.2h19.2c.8 0 1.1-.4 1.1-1.2V1.2c0-.8-.4-1.2-1.1-1.2zm0 15.4v4.1H1V1h19.5v14.4h-.1z"/><g id="XMLID_7_"><path id="XMLID_9_" class="st0" d="M3.4 10.4s0-.1.1-.2c.1-.2.3-.3.6-.6s.6-.7.9-.9c.3-.3.6-.3.9-.1.9.8 1.9 1.5 2.9 2.3.3.3.7.2.9-.1.7-.7 1.5-1.4 2.2-2.2.7-.7 1.4-1.4 2.2-2.1.4-.4.9-.9 1.4-1.3.3-.3.7-.3.9 0l1.4 1.4c.3.3.3.6 0 .9-.8.7-1.5 1.5-2.2 2.2-.4.4-.9.9-1.4 1.3-1 1-2.1 2.1-3.1 3-.3.3-.7.7-1.1 1-.3.3-.7.3-1.1.1-1.2-1-2.5-2.1-3.9-3-.4-.3-.9-.7-1.4-1-.1-.1-.2-.3-.3-.3v-.4h.1z"/></g></svg>