<svg id="svg8" xmlns="http://www.w3.org/2000/svg" viewBox="0 0 235 35"><style>.st0{fill:#273238}.st1{fill:#e6003e}</style><g id="Layer1002" transform="translate(127.857 -632.857)"><path id="path42" class="st0" d="M-53.4 662.3h-3.5v-3.5h-10.5v3.5h-3.5v-12.2c0-3.5 1.8-5.2 5.3-5.2h7c3.5 0 5.3 1.7 5.3 5.2v12.2zm-3.5-7v-5.2c0-1.2-.6-1.7-1.8-1.7h-7c-1.2 0-1.8.6-1.8 1.7v5.2h10.6z"/><path id="path44" class="st1" d="M-32.2 644.8l-6.9 17.4h-3.7l-6.9-17.4h3.7l5 12.6 5-12.6h3.8z"/><path id="path46" class="st1" d="M-11.9 648.3h-7v13.9h-3.5v-13.9h-7v-3.5h17.5v3.5z"/><path id="path48" class="st1" d="M8.2 657.3c0 3.5-1.8 5.2-5.3 5.2h-7c-3.5 0-5.3-1.7-5.3-5.2v-7.5c0-3.5 1.8-5.2 5.3-5.2h7c3.5 0 5.3 1.7 5.3 5.2v7.5zm-3.5 0v-7.5c0-1.2-.6-1.7-1.8-1.7h-7c-1.2 0-1.8.6-1.8 1.7v7.5c0 1.2.6 1.7 1.8 1.7h7c1.2.1 1.8-.5 1.8-1.7z"/><path id="path50" d="M29.7 662.3h-4.5l-5.6-7h-3.9v7h-3.5v-17.4h3.5v7h3.9l5.6-7h4.5l-7 8.7 7 8.7z" fill="#273238" stroke="#273238" stroke-width=".567"/><path id="path52" class="st1" d="M50 657.3c0 3.5-1.8 5.2-5.3 5.2h-7c-3.5 0-5.3-1.7-5.3-5.2v-7.5c0-3.5 1.8-5.2 5.3-5.2h7c3.5 0 5.3 1.7 5.3 5.2v7.5zm-3.5 0v-7.5c0-1.2-.6-1.7-1.8-1.7h-7c-1.2 0-1.8.6-1.8 1.7v7.5c0 1.2.6 1.7 1.8 1.7h7c1.3.1 1.8-.5 1.8-1.7z"/><path id="path54" class="st1" d="M74.8 662.3h-3.5v-10.9l-7 10.9-7-10.9v10.9h-3.5v-17.4h3.5l7 10.9 7-10.9h3.5v17.4z"/><path id="path56" class="st1" d="M81.9 662.3h-3.5v-17.4h3.5v17.4z"/><path id="path58" class="st1" d="M103.2 657c0 3.5-1.8 5.2-5.3 5.2H86.5v-3.5h11.4c1.2 0 1.8-.6 1.8-1.7 0-1.2-.6-1.7-1.8-1.7h-7c-3.5 0-5.3-1.7-5.3-5.2s1.8-5.2 5.3-5.2h11.4v3.5H90.9c-1.2 0-1.8.6-1.8 1.7 0 1.2.6 1.7 1.8 1.7h7c3.5 0 5.3 1.8 5.3 5.2z"/><g id="Layer1003" transform="translate(-89.286 676.429)"><path id="path60" class="st1" d="M3.2-21.3c.3-1.6 2.2-2.7.6-3.1-7.5-1.8-12.8-2.4-13.4-2.7-.9-.5-3.5-2.5-4.8-2.5-4.6-.2-9.7.8-14.4.8v-8.3H5.7c1.3 0 2.5.5 3.4 1.4.9.9 1.4 2.1 1.4 3.4v18.2H-24c-1.3 0-2.5-.5-3.4-1.4-.9-.9-1.4-2.1-1.4-3.4v-5h2.5v5c0 .6.3 1.2.7 1.6.4.4 1 .7 1.6.7H8v-15.6c0-.6-.3-1.2-.7-1.6-.4-.4-1-.7-1.6-.7h-31.9v3.2c3.9-.1 8-.7 11.9-.6 2.4.1 4.1 1.8 5.9 2.8.6.4 4.2.8 12.7 2.8 1.8.4 2.2 1.3 2.2 2.2-.1 1.2-1.1 1.8-1.2 2.7-.1.7.5 1.5.8 1.8H3.9c-.5-.3-.8-1.1-.7-1.7z"/><path id="path62" class="st0" d="M-21.3-24.6c-4.5-.5-9.7-1.9-13.3-3.8 5 .8 9.9 1.5 15.2 2.1 6.1.7 11.5.4 18 2.2-6.8-.6-12.5.3-19.9-.5z"/><path id="path64" class="st1" d="M1.1-19.3c-1.3-.9-2-1.4-3.2-1.9-1.4-.6-3.2-.7-5.4-.9 1.5-.7 4.3-1 6.2-.3 1.2.4 2.3 1.3 2.4 3.1z"/></g></g></svg>