<svg id="behance" viewBox="0 0 430.12 267.63" width="100%" height="100%">
    <title>behance</title>
    <path d="M388.43 37.87H280.66V11.1h107.78v26.77zM208.91 147.65q10.43 16.16 10.43 39.2c0 15.88-3.92 30.12-11.89 42.7a74 74 0 0 1-18.93 21 73.16 73.16 0 0 1-30.2 13.45 186.73 186.73 0 0 1-37.79 3.62H0V0h129.25c32.58.53 55.68 10 69.32 28.51q12.28 17.05 12.24 40.87c0 16.36-4.1 29.45-12.37 39.4q-6.9 8.37-20.38 15.23c13.62 4.99 23.94 12.83 30.85 23.64zM61.72 105.51h56.63c11.64 0 21-2.21 28.29-6.63s10.86-12.26 10.86-23.53c0-12.45-4.78-20.71-14.37-24.69-8.24-2.76-18.79-4.19-31.59-4.19H61.72zM163 183c0-13.9-5.68-23.51-17-28.67-6.34-2.93-15.29-4.43-26.76-4.54H61.72v71.32h56.56c11.62 0 20.61-1.52 27.1-4.69 11.7-5.8 17.62-16.91 17.62-33.42zm265.47-43.54c1.3 8.76 1.89 21.46 1.65 38.07H290.49q1.15 28.9 20 40.45c7.61 4.83 16.83 7.2 27.63 7.2 11.39 0 20.67-2.88 27.82-8.8a41.82 41.82 0 0 0 10.3-13.15h51.16c-1.34 11.38-7.5 22.92-18.57 34.65q-25.73 28-72.1 28-38.28 0-67.53-23.59T240 165.5q0-49.89 26.38-76.43C284 71.32 306.85 62.48 335 62.48q25 0 45.08 9t33.09 28.39c7.83 11.38 12.89 24.58 15.25 39.62zm-50.36 5q-1.41-20-13.39-30.3T335 103.81c-12.89 0-22.84 3.71-29.91 11s-11.58 17.19-13.4 29.67h86.37z">
    </path>
</svg>