<svg id="instagram" viewBox="0 0 68.61 68.61" width="100%" height="100%">
    <path d="M66.81 11.82a16.77 16.77 0 0 0-4-6.07 16.78 16.78 0 0 0-6.02-3.95A25 25 0 0 0 48.46.21C44.8.05 43.64 0 34.3 0S23.81 0 20.15.21a24.89 24.89 0 0 0-8.33 1.59 16.77 16.77 0 0 0-6.07 3.95 16.77 16.77 0 0 0-4 6.07 25 25 0 0 0-1.54 8.33C.05 23.81 0 25 0 34.3s0 10.5.21 14.16a24.88 24.88 0 0 0 1.59 8.33 16.76 16.76 0 0 0 4 6.07 16.76 16.76 0 0 0 6.07 4 25 25 0 0 0 8.32 1.59c3.66.16 4.83.21 14.16.21s10.5 0 14.16-.21a24.88 24.88 0 0 0 8.32-1.59 17.49 17.49 0 0 0 10-10 25 25 0 0 0 1.59-8.32c.16-3.66.21-4.83.21-14.16s0-10.5-.21-14.16a24.88 24.88 0 0 0-1.61-8.4zm-4.59 36.35A18.74 18.74 0 0 1 61 54.53a10.62 10.62 0 0 1-2.57 4 10.74 10.74 0 0 1-4 2.57 18.9 18.9 0 0 1-6.36 1.19c-3.63.16-4.69.21-13.87.21s-10.26 0-13.86-.21A18.75 18.75 0 0 1 14 61.05a11.39 11.39 0 0 1-6.52-6.52 18.89 18.89 0 0 1-1.19-6.36c-.16-3.63-.21-4.72-.21-13.86s0-10.26.21-13.87a18.74 18.74 0 0 1 1.19-6.36 10.61 10.61 0 0 1 2.57-4A10.74 10.74 0 0 1 14 7.55a18.93 18.93 0 0 1 6.36-1.19c3.63-.16 4.72-.21 13.86-.21s10.26 0 13.87.21a18.78 18.78 0 0 1 6.41 1.19 10.63 10.63 0 0 1 4 2.57 10.75 10.75 0 0 1 2.57 4 18.89 18.89 0 0 1 1.19 6.36c.16 3.63.21 4.72.21 13.87s-.09 10.21-.25 13.82z">
    </path>
    <path d="M34.28 16.67A17.63 17.63 0 1 0 51.91 34.3a17.64 17.64 0 0 0-17.63-17.63zm0 29.08A11.45 11.45 0 1 1 45.73 34.3a11.46 11.46 0 0 1-11.45 11.46z">
    </path>
    <circle cx="52.6" cy="15.99" r="4.11"></circle>
</svg>