<svg id="name" xmlns="http://www.w3.org/2000/svg" viewBox="0 0 347 176.6"><style>.st0{fill:#e6003e}</style><g id="layer1" transform="translate(0 -285)"><g id="Layer1003" transform="translate(-24.292 222.085) scale(.26458)"><path id="path3730" class="st0" d="M1190.9 698.4c7.8-45.1 63-78.9 18.1-89.7-218.4-52.7-373.7-71.2-390-80.2-27.6-15.3-103-72.4-139.5-73.7-133.4-4.9-281.3 22.7-418.5 24.6V237.8h1002.3c38.4 0 73.4 15.7 98.7 41.1l.2.2c25.3 25.4 41.1 60.3 41.1 98.7v527.6H400.9c-38.4 0-73.3-15.7-98.7-41.1l-.1-.1-.1-.1c-25.3-25.4-41.1-60.4-41.1-98.7V620h73.2v145.4c0 18.4 7.5 35.1 19.5 47.1l.2.2c12 12 28.7 19.5 47.1 19.5H1330V377.8c0-18.4-7.5-35.1-19.5-47.2-12.1-12-28.8-19.5-47.2-19.5h-929v94.1c114.8-3.3 233.4-20.2 347.1-16.1 68.4 2.5 119.2 52.3 172.6 82.4 18.4 10.4 121.9 21.9 370.3 82.8 52.6 12.9 65.3 38.3 63.6 64.2-2.1 34-33.4 53.1-35.9 78.2-2.1 21.1 13.2 42.8 24 52.6l-64.3-.2c-15.3-11.3-23.9-32.9-20.8-50.7z"/><path id="path3732" d="M477.8 602.4c-131.1-13.5-281.5-56.5-386-111.4 145 23.1 289.4 45.1 442.6 61.5 176.5 19 334.6 11.8 523.1 62.8-199.7-16.1-362.8 9.5-579.7-12.9z" fill="#273238"/><path id="path3734" class="st0" d="M1131 755.9c-36.5-26.1-57.7-39.9-92.6-55-41.8-18-93.8-21.2-157-27.3 42.2-20.5 125.2-28.7 180-8.6 34.9 12.8 65 39.8 69.6 90.9z"/></g></g></svg>