<?xml version="1.0" encoding="utf-8"?>
<!-- Generator: Adobe Illustrator 22.0.0, SVG Export Plug-In . SVG Version: 6.00 Build 0)  -->
<svg version="1.1" id="Слой_1" xmlns="http://www.w3.org/2000/svg" xmlns:xlink="http://www.w3.org/1999/xlink" x="0px" y="0px"
	 viewBox="0 0 792 464.1" style="enable-background:new 0 0 792 464.1;" xml:space="preserve">
<style type="text/css">
	.st0{fill:#4985C6;}
	.st1{fill:#4985C7;}
</style>
<polygon class="st0" points="437,50.9 388.1,185 340.2,50.8 257.6,50.8 257.6,118.1 318.7,118.1 359.4,226.8 417.8,226.8 
	459.1,118.1 526.7,51 "/>
<path class="st1" d="M619.4,325l-8.7-16h-36.2l31.6,43.6l-36.9,50.2h36.7l13.9-23.6c2.1-3.4,3.4-7,4.6-11.2c0.9,4,2.5,7.6,4.6,11.2
	l14.1,23.6h37.3l-37.5-50.2L675,309h-37.5l-9,16c-1.1,1.9-3,5.3-4.6,11.2C622.7,331.1,621,327.7,619.4,325z M538.5,343.8h-38.1
	c1.9-11.8,8.6-17.7,19.2-17.7C529.5,326.1,537.3,333,538.5,343.8z M571,362.5c0-0.6,0-1,0-1.5c0-34.5-19.8-55-50.3-55
	c-31.2,0-52.3,22.7-52.3,51c0,28.4,20,49.5,54.2,49.5c22.3,0,37.7-8.4,43.6-22.5l-24.9-10.1c-3.6,7.4-10.5,11.2-20.6,11.2
	c-13.3,0-20.9-8-21.1-22.6H571z M411.7,402.8h32.5v-70.4h14.1V309h-14.1v-28h-32.5v28h-14.1v23.4h14.1V402.8z M305.7,395
	c12.8,7.8,26.6,11.4,42.8,11.4c24.9,0,40.4-13.3,40.4-32.2c0-15-8.8-23-26.6-28.4c-13.1-4-21.5-4.4-21.5-10.8
	c0-4.4,3.8-6.9,11.4-6.9c8.8,0,17.9,2.9,27,9.1l6.9-22.8c-12.9-5.7-25.1-8.6-37.5-8.6c-24.6,0-38.1,12.9-38.1,30.1
	c0,14.3,8.9,22.8,28.4,28c12.4,3.2,20,3.2,20,11c0,4.9-4.4,7.8-12.7,7.8c-11.4,0-23.8-4.6-33.5-13.1L305.7,395z M254.3,279.7
	c0,9.7,8,18.5,18.3,18.5c9.9,0,18.3-8.2,18.3-18.5c0-10.3-8.2-18.3-18.3-18.3C262.5,261.4,254.3,269.8,254.3,279.7z M256,402.8h33.1
	V309H256V402.8z M161,402.8h28.2l57.1-136.1h-39.4l-27,76.1c-0.6,1.5-2.3,7.6-4.8,18.3c-2.5-10.7-4-16.7-4.6-18.3l-27.2-76.1h-39.4
	L161,402.8z"/>
<path class="st1" d="M540.3,62.8c0-6.6,5.4-12,12-12s12,5.5,12,12.1c-0.1,6.6-5.5,12-12.1,11.9C545.6,74.7,540.2,69.3,540.3,62.8z
	 M561.8,62.8c0-5.3-4.2-9.5-9.5-9.5s-9.5,4.2-9.5,9.5s4.2,9.5,9.5,9.5S561.8,68.1,561.8,62.8z M554.7,62.8c0.5,0.6,1.1,1.1,1.5,1.7
	c0.8,1.4,1.4,2.8,2.2,4.3c-1.2,0-2.2,0-3.2,0c-0.2,0-0.4-0.2-0.5-0.4c-0.5-1-1-2-1.5-3c-0.6-1.2-1.5-1.6-2.9-1.3c0,1.5,0,3,0,4.6
	c-1.1,0-2.1,0-3.2,0c0-4.1,0-8.3,0-12.4c0,0,0-0.1,0.1-0.1c2.3,0.1,4.6,0,6.8,0.2c1.8,0.2,2.6,1.2,2.8,2.8S556.3,61.9,554.7,62.8
	C554.7,62.8,554.6,62.9,554.7,62.8z M550.3,61.8c0.5,0,1,0,1.5,0c0.2,0,0.4,0,0.6-0.1c0.7-0.2,1.1-0.6,1.1-1.4c0-0.9-0.3-1.4-1-1.5
	s-1.4,0-2.2,0C550.3,59.7,550.3,60.7,550.3,61.8z"/>
</svg>
