<?xml version="1.0"?><svg width="640" height="480" xmlns="http://www.w3.org/2000/svg">
 <title>Vector Palm Trees</title>

 <g>
  <g transform="rotate(41.9521, 453.391, 213.264)" id="g16748">
   <path fill="#ff007f" fill-rule="evenodd" stroke-width="1px" id="path20836" d="m386.040771,117.927094c1.378418,-4.448219 1.670898,-8.170113 1.157867,-10.76194c-1.361542,-6.87883 -2.311127,-12.897461 -5.789276,-17.649712c-2.035522,-2.78112 -6.258026,-4.161209 -8.601379,-3.874252c-1.295715,1.363144 -2.756805,1.973099 -4.135254,2.152405c0.303284,2.116501 1.350861,3.372108 2.646545,4.089539c-0.44104,1.327271 -1.047577,2.116554 -1.819458,3.013382c0.110229,2.224106 0.220551,4.448318 0.33078,6.672424c0.771912,0.502243 1.543854,1.004425 2.315796,1.506699c-0.441132,0.717484 -0.882172,1.434906 -1.323334,2.152405c1.598999,1.076134 3.197998,2.152435 4.796936,3.228561c0,1.721939 0,3.443863 0,5.165794c2.536285,2.152359 6.230408,4.089607 8.766632,6.241951l1.654144,-1.937256z"/>
   <path fill="#ff007f" fill-rule="evenodd" stroke-width="1px" id="path3352" d="m385.048309,117.496689c-11.9646,-0.141312 -62.311066,5.012039 -69.141327,8.770981c-2.198761,-3.020996 -3.333099,-1.368118 -7.68222,0.46904c-1.784454,-1.113205 -3.00415,-4.386307 -3.473633,-6.887741c0.962463,-1.621765 1.439697,-3.066315 2.037659,-4.128677c-0.973419,-1.230759 -1.477661,-0.997742 -2.651123,-1.361374c1.433502,-8.179123 9.406738,-17.409081 12.32666,-18.427048c0.435303,1.087906 0.615479,1.603477 1.189514,2.331131c0.018433,-1.821793 1.434967,-2.756233 2.988953,-4.359711c2.799591,-0.271622 11.356567,-2.544044 13.7901,-2.665817c13.20285,-0.660797 27.057922,-0.769051 37.713409,9.47049c5.85553,5.626907 8.82193,9.470581 12.902008,16.788727z"/>
   <path fill="#ff007f" fill-rule="evenodd" stroke-width="1px" id="path6858" d="m315.576172,130.841385c4.408447,-8.828903 15.490936,-13.24147 32.832062,-16.092438c17.341064,-2.850342 33.993469,4.684799 33.993469,4.684799l-3.308197,2.367599c-12.571259,-0.143677 -24.337646,3.63681 -34.57074,9.470459c-1.78595,-0.04538 -3.461609,0.159454 -4.669617,0.374329c-0.236237,1.479675 -0.707794,2.37645 -1.533112,3.446503c-2.981506,1.211212 -7.993988,4.493851 -10.834381,6.941483c-2.212097,-1.197952 -4.54126,-2.776581 -6.285583,-4.735199c-1.387634,0.62767 -2.795105,2.383987 -3.638977,4.735199c-1.187988,-3.4263 -1.704285,-6.986862 -1.984924,-11.192734l0,0z"/>
   <path fill="#ff007f" fill-rule="evenodd" stroke-width="1px" id="path3354" d="m386.702423,134.285416c5.667358,26.794174 12.701508,45.290359 18.405487,70.641922c2.787048,12.387192 4.247223,27.511368 3.324829,39.834625c-0.731689,9.774719 -2.873566,21.393738 -6.181824,30.720825c-2.081787,-1.900238 -4.397522,-3.496094 -6.947174,-3.874359c-2.081787,2.500397 -4.397583,3.783051 -6.947205,4.30484c-1.169647,-4.261292 -2.105377,-9.740173 -1.520538,-14.610291c1.226349,-1.078308 2.569763,-3.678589 2.977386,-6.887695c-1.467041,-1.473877 -2.700104,-6.144073 -2.646606,-9.900955c1.928192,-3.543808 2.452789,-7.696396 2.977417,-12.914444c-1.212952,-7.605148 -2.646423,-21.66275 -2.352386,-31.338409c0.307709,-10.127838 -1.82785,-51.583221 -3.735962,-67.267517l2.646576,1.291458z"/>
   <path fill="#ff007f" fill-rule="evenodd" stroke-width="1px" id="path3362" d="m385.37915,132.993958c3.969879,18.367111 8.430817,37.769119 11.345459,56.465714c2.332733,14.963501 5.200531,28.382355 8.834564,42.114136c2.122742,2.116577 2.839508,4.017838 3.638977,6.026688c5.085999,1.347931 8.768341,3.608978 14.55603,8.609634c0.882233,-3.587357 1.764404,-6.565903 2.646606,-10.761963c-3.197906,-10.905563 -6.244202,-21.890305 -9.59375,-32.716476c-3.487396,-11.27182 -6.794647,-22.697647 -10.917084,-33.577469c-3.70694,-9.783279 -11.643036,-24.634796 -16.547882,-33.281952l-3.962921,-2.878311z"/>
   <path fill="#ff007f" fill-rule="evenodd" stroke-width="1px" id="path3358" d="m391.003143,133.854935c12.901886,10.04451 26.1073,20.010818 37.770172,31.959885c7.524658,7.709488 15.794189,18.883621 20.962006,29.450943c6.410858,13.10907 10.586212,25.689484 14.709747,39.751923c-1.157867,1.040283 -2.729279,1.112061 -3.969818,0.860962c0.441101,1.434921 0.882141,2.869858 1.323242,4.304764c-3.004913,5.416809 -4.769226,12.017578 -6.285583,18.510559c-1.433533,0.502258 -3.032501,0.358765 -4.300659,-0.43045c-1.24057,1.506775 -1.736786,3.228729 -1.984924,5.165802c-1.35083,-1.399048 -1.874603,-3.228638 -2.315735,-5.165802c-1.516266,0.4664 -2.370819,1.255585 -3.308197,3.013397c-1.598969,-5.022278 -2.205444,-9.93692 -2.315704,-15.066788c-1.13028,0.64563 -2.508728,0.860947 -3.639008,0c0,-6.277802 -1.488678,-10.403259 0.661621,-15.92778c-7.057495,-10.439163 -8.987274,-23.245895 -12.902008,-35.729782c-5.375763,-7.784561 -10.329742,-12.96022 -14.886841,-21.523972c-6.30481,-11.848175 -12.460846,-24.178665 -19.187592,-35.299393l-0.330719,-3.874268z"/>
   <path fill="#ff007f" fill-rule="evenodd" stroke-width="1px" id="path3569" d="m598.257629,339.954254c7.463196,0.998993 15.149414,1.127502 22.389648,0.820709c-25.199158,-21.748352 -43.496094,-47.601563 -71.583801,-65.245087c-29.37207,-18.450195 -74.862183,-46.778046 -101.226593,-65.245026c-9.170776,-6.423721 -40.246094,-39.236282 -46.434875,-52.319199c-2.315765,-4.89534 -9.295319,-20.163666 -3.389984,-24.415649c-6.242798,-7.904968 -10.721802,-12.857544 -16.082703,-19.286247c3.363647,14.225365 8.910645,35.426613 15.0578,47.395012c7.833252,15.25119 15.578552,22.374649 26.883392,34.263962c11.715454,12.321091 24.067566,24.046783 37.210938,33.648346c28.797882,21.037567 62.204865,42.300385 88.61264,58.269196c10.298035,6.227173 42.744507,38.369659 48.563538,52.113983z"/>
   <path fill="#ff007f" fill-opacity="0.400662" fill-rule="evenodd" stroke-width="0.25pt" id="path6709" d="m595.201599,330.745514c-10.751648,-12.465942 -35.696533,-37.254913 -42.62854,-42.017853c-18.301697,-12.574738 -64.957733,-38.450012 -99.003693,-65.871002c-9.300018,-7.490402 -18.315674,-15.851593 -27.03418,-24.416275c-6.978241,-7.847321 -13.956451,-15.694656 -20.934692,-23.541916c-6.823151,-8.071503 -12.870941,-22.062103 -14.731812,-29.461014c0.964905,-0.425934 1.929779,-0.851883 2.894714,-1.277908c5.065613,8.811386 10.131317,17.622696 15.197021,26.434158c6.27179,8.72168 12.543549,17.443375 18.815308,26.165054c8.322235,9.327103 17.720947,17.750626 27.447754,24.752609c35.123413,25.284012 76.766876,50.678574 100.523773,67.158951c12.734192,8.833771 30.595947,27.235291 39.454346,42.075195z"/>
   <path fill="#ff007f" fill-rule="evenodd" stroke-width="1px" id="path20834" d="m387.433044,117.403534c8.343384,-2.739525 16.561859,-6.689659 25.029999,-8.218597c7.828583,-1.413528 15.960175,-1.262436 23.860291,-0.608871c5.589508,0.462479 11.540253,1.420609 16.608673,3.957214l7.251678,7.609848l-74.855988,7.914337l2.105347,-10.653931z"/>
   <path fill="#ff007f" fill-rule="evenodd" stroke-width="1px" id="path17338" d="m378.192993,109.793762c1.013672,1.699539 2.144379,2.63797 4.561584,4.413666c1.481506,-1.116119 3.25531,-3.373688 8.479675,-1.293587c-0.194855,1.724846 -0.423187,2.665359 0.292572,4.185356c1.21759,2.586075 1.559418,3.754196 2.690033,6.392273c2.573181,2.99321 5.146332,5.98645 7.719513,8.979691c0.409302,3.881042 0.058502,7.533691 -1.403564,10.501633c-2.690155,0.963882 -5.38028,1.927795 -8.070435,2.891693c-2.534119,1.014648 -5.41922,4.160065 -7.602478,7.609924c-3.430939,-1.268372 -6.861816,-2.536652 -10.292694,-3.804977c-3.547852,-4.921097 -7.095764,-9.842041 -10.643585,-14.763138c4.054657,-5.732758 6.004059,-11.617767 6.199005,-18.568138c1.968842,-3.246925 4.347107,-5.504417 8.070374,-6.544395z"/>
   <path fill="#ff007f" fill-rule="evenodd" stroke-width="1px" id="path3364" d="m379.830505,118.316742c-6.574738,0.810257 -12.016968,1.810303 -18.814362,2.32312c-6.653259,0.501862 -14.955444,0.966507 -21.537689,0.72081c-0.900726,0.282776 -2.956207,1.124741 -3.818634,1.536377c0.271851,0.743881 0.965973,1.232208 0.887177,1.946732c-1.138519,-0.77066 -1.716095,-0.712585 -2.178741,-1.055237c-1.519653,0.997223 -2.496399,4.49794 -2.193939,5.136749c0.365601,-0.423553 0.97934,-1.116211 1.923889,-1.324463c-0.910919,0.491882 -1.635742,1.46814 -2.050415,2.390594c0.754913,1.137665 4.917786,1.378983 6.0271,3.240692c0.686462,-0.700943 0.917999,-1.563446 0.818726,-2.587341c0.528137,1.125366 0.590454,1.767624 0.467865,2.891754c2.105316,0.325943 4.12796,0.22139 6.315979,-0.152161c8.346832,-4.699799 23.35141,-10.906189 31.615509,-12.754059l2.537537,-2.313568z"/>
   <path fill="#ff007f" fill-rule="evenodd" stroke-width="1px" id="path3338" d="m377.770416,119.649261c-12.130066,4.017441 -23.265411,7.161469 -35.728668,12.268494c-13.893372,5.692459 -23.898438,11.510986 -36.085999,23.941422c-7.812195,7.968079 -16.545288,21.957581 -19.822571,34.388672c1.92981,0.574097 8.077545,-1.650482 10.172729,-3.228455c-0.165405,-1.470856 -0.165405,-2.941711 0.082703,-4.950745c1.295715,1.901276 3.583893,1.542709 5.623962,0.860825c2.70166,-2.295761 6.065002,-4.483765 9.59375,-5.596069c3.914734,0.466354 7.415894,0.071854 11.247925,-0.860825c1.902191,-3.479889 4.548737,-5.99118 7.939667,-8.179199c5.486023,-1.614517 12.460876,-6.780182 17.864227,-9.363312c0.66153,-4.053345 5.624084,-11.012512 9.263062,-14.743851c3.032623,1.722305 7.057587,1.076355 10.586151,0c0.523987,-7.533249 4.686523,-16.681046 9.263062,-24.536957l0,0z"/>
   <path fill="#ff007f" fill-rule="evenodd" stroke-width="1px" id="path3356" d="m378.431885,134.715897c-3.018066,18.763596 -6.036621,44.970673 -7.277985,67.585312c-0.85376,15.554581 0.250122,32.130142 2.395996,47.226608c1.382813,9.727798 4.056641,18.062729 8.190216,27.246353c1.433533,-1.57843 2.867126,-3.156799 4.300659,-4.735229c0.765228,1.61322 1.64743,2.313263 2.646576,3.013367c0.531281,-2.626434 1.296509,-4.035217 2.646515,-5.596283c0.066986,-8.788147 -0.450958,-15.749908 -2.723297,-18.450165c1.350006,-0.973846 1.062561,-1.947754 2.061737,-3.073807c-1.584015,-3.874359 0.728546,-22.880585 0.66156,-30.564072c-1.433533,-2.869904 -2.867065,-5.73967 -4.300629,-8.609604c1.356049,0.195786 3.347382,-0.521713 4.300629,-2.152405c0.137054,-4.026459 -0.193787,-7.748642 -0.992401,-11.62291c-0.882202,-0.860977 -1.764374,-1.721954 -2.646576,-2.582901c2.162048,-4.852722 2.920593,-10.009689 2.977417,-15.927765c-4.367584,-15.427658 -6.629822,-22.636566 -8.892029,-42.021423l-3.348389,0.264923z"/>
   <path fill="#ff007f" fill-rule="evenodd" stroke-width="1px" id="path3346" d="m369.499817,147.630264c-7.84317,14.883621 -15.364197,30.13736 -22.495758,45.630844c-5.549866,12.057175 -10.690277,24.48851 -15.548523,37.02124c-1.427277,3.681976 -2.556396,7.139938 -3.308228,11.623016c0.992493,-0.430496 2.026276,-0.430496 2.977417,-1.291458c-0.882202,3.874344 -1.268158,8.125259 -2.646576,11.62291c0.39975,4.878784 1.998718,8.950378 2.315735,13.34491c1.957336,2.080597 4.493591,2.81601 6.616425,3.013306c2.453552,-2.277893 6.062225,-4.300659 7.608826,-8.609589c1.678894,-4.677307 3.942261,-9.111786 6.285553,-13.344833c-1.019989,-3.300415 -1.378387,-6.331635 -1.323212,-9.900986c0.758118,1.847397 2.095184,4.394455 3.638977,4.735245c1.323303,-3.443863 1.86084,-7.318161 3.969818,-10.331543c3.458649,-10.888092 6.332397,-22.080536 8.270508,-33.577454c2.238922,-3.061066 3.07428,-7.035294 5.898041,-11.466202c1.379974,-7.639938 3.461792,-18.019485 6.011505,-23.833084c-0.60495,-9.757614 -0.274078,-18.754074 0.992401,-29.272629c-3.087616,4.878799 -6.519806,9.430893 -9.262909,14.636307z"/>
   <path fill="#ff007f" fill-rule="evenodd" stroke-width="1px" id="path3344" d="m378.649231,122.966812c-10.957184,12.323029 -24.869995,27.694763 -32.637634,37.577805c-6.0961,7.756348 -22.210144,40.308197 -24.811493,47.783295c-2.691833,7.735184 -6.616394,33.433899 -6.285583,38.312698c2.108582,0.530411 3.749298,2.278488 5.623962,3.874283c2.466125,-2.40451 4.230469,-6.026642 5.293121,-9.040024c-1.149567,-2.726364 -1.363434,-5.452744 -0.992462,-8.179138c2.536316,0.391418 6.125183,-1.652313 8.66153,-3.23938c1.049225,-5.370224 4.470886,-14.701462 5.483459,-20.541382c2.315735,-1.434921 6.035004,-1.043518 8.350769,-2.478516c1.075989,-5.748383 2.502777,-11.496826 4.631439,-16.788727c5.71756,-2.800217 9.095917,-11.992706 12.240326,-12.053391c0.678253,-5.630997 3.461884,-10.653336 6.947235,-15.066803c-0.932434,-8.31366 1.176147,-24.237183 7.495331,-40.160721z"/>
   <path fill="#ff007f" fill-rule="evenodd" stroke-width="1px" id="path3350" d="m378.762726,128.689117c-16.871796,12.3405 -20.060242,9.644958 -35.645782,23.676407c-3.381439,3.044235 -19.160004,22.815491 -21.255219,27.550735c1.764374,-1.291458 3.859589,-1.614304 5.293152,-3.874359c0.248108,1.686096 1.075165,2.834076 1.984924,3.443878c1.764374,-2.941635 3.859558,-4.591782 6.285583,-5.596207c3.087646,0.322769 6.919617,-1.291458 10.255402,-2.582916c10.117584,-14.528687 22.054626,-28.411636 33.08194,-42.617538z"/>
   <path fill="#ff007f" fill-rule="evenodd" stroke-width="1px" id="path3348" d="m374.131287,142.89502c-2.609375,14.060181 -12.465546,31.316803 -16.546448,51.207993c-4.080933,19.891251 -5.310669,41.085281 -5.287689,55.9814c1.654144,-1.291473 3.308258,-2.582855 4.96228,-3.874283c-1.102692,5.022232 -2.646515,24.537369 -2.315674,29.272659c2.040009,2.008911 3.252991,5.739685 3.638977,9.901001c1.309937,1.039215 2.619843,1.317505 4.6315,1.291443c1.179565,-4.870117 4.464447,-9.283569 5.293091,-15.066803c2.142059,-1.321747 4.588959,-5.572174 6.533752,-9.685822c-1.047638,-5.022247 -2.343414,-10.259735 -2.233093,-15.281998c0.882172,-1.004532 1.764343,-2.008881 2.646515,-3.013321c-0.319489,-10.663879 2.975037,-32.880798 4.029755,-56.051086c1.054657,-23.170273 -3.054504,-42.82309 1.263397,-55.873703c-2.205444,3.73082 -4.41095,7.461624 -6.616364,11.19252z"/>
   <path fill="#ff007f" fill-rule="evenodd" stroke-width="1px" id="path3360" d="m381.773407,129.171829c8.987305,13.560089 17.445007,24.485153 22.793274,40.412903c1.157867,8.107346 1.488678,15.999527 0.992493,23.676376c1.874603,2.941559 3.914703,5.667999 6.616394,6.887665c-0.551392,3.15686 -1.102722,6.313721 -1.654114,9.470581c2.040009,2.15242 5.844513,6.528946 6.947205,10.761932c-1.709229,4.376617 -2.425995,8.322678 -2.646576,13.775421c3.418488,1.793716 16.210144,10.116241 19.187561,13.775345c2.315796,-1.865479 4.135254,-4.807007 4.962311,-8.179123c-0.441101,-5.165741 -6.512421,-33.369659 -9.924591,-41.756561c-4.527466,-11.128113 -11.684174,-22.601654 -17.556946,-32.590332c-8.131897,-13.831177 -18.56604,-24.593811 -27.498169,-37.651733l-2.218842,1.417526z"/>
   <path fill="#ff007f" fill-rule="evenodd" stroke-width="1px" id="path3342" d="m390.672302,129.119598c11.027313,3.300339 22.800201,4.213287 33.081879,9.901062c12.544861,6.939667 24.518921,17.204208 35.397797,27.981155c6.21347,6.155243 10.586182,15.210251 15.879303,22.81543c-0.275665,3.587341 0.11026,7.282303 0.661652,10.762009c-1.543854,0.645721 -3.087677,0.538132 -4.6315,0c-0.082703,2.403534 0.33078,5.022263 0.992493,6.88768c-0.992493,2.0448 -2.563843,3.013382 -3.969818,3.874359c0.468597,3.264404 -0.551422,5.560287 -0.330902,8.179047c-1.130219,1.004501 -2.260559,1.14798 -3.638947,1.721939c-0.523804,-2.044739 -0.385925,-4.412476 -1.323303,-6.457199c-0.882111,-0.287003 -1.764343,-0.573959 -2.646484,-0.860886c-2.591492,-5.345108 -2.701782,-10.475082 -6.285583,-16.358322c-1.543884,-0.286926 -3.087677,-0.573959 -4.631561,-0.860947c-2.288116,-3.694962 -4.493591,-7.605103 -5.62384,-12.053421c-2.839569,-0.753326 -5.513733,-0.645721 -8.270538,0c-1.654114,-5.165802 -3.308197,-10.331467 -4.96225,-15.497284c-2.041748,1.226318 -3.147705,1.387177 -5.306396,1.852493c-3.271515,-4.852631 -7.595642,-12.901443 -9.580566,-18.210709c-3.20462,-2.087265 -6.526184,-2.195908 -9.262939,-2.152359c-4.130219,-9.609894 -10.365601,-14.34935 -15.548492,-21.524048z"/>
   <path fill="#ff007f" fill-rule="evenodd" stroke-width="1px" id="path3340" d="m387.033234,120.07959c12.571198,-2.869827 18.030975,-4.403839 30.695648,-6.174461c14.021515,-1.960274 30.343994,-3.736366 43.982513,-1.213066c9.62912,1.78154 23.685608,6.526474 32.838257,11.692291c-1.212982,0.717438 -2.425964,1.434937 -3.638916,2.152344c1.129364,2.556824 1.849487,5.950623 1.984802,9.0401c-6.017242,-2.112595 -11.800568,-2.551056 -17.700867,-2.456741c-1.157196,1.536377 -2.314362,3.072769 -3.471588,4.609146c-2.214233,-0.19194 -3.785217,-1.068817 -5.239166,-2.173965c-4.453369,1.812424 -8.555817,4.766342 -11.956543,7.948502c-4.082397,-1.637848 -8.164856,-3.275711 -12.247223,-4.913559c-2.171936,3.352646 -4.811859,5.639832 -8.270508,7.318146c-1.079254,-2.229187 -2.158417,-4.458466 -3.237701,-6.687714c-6.957336,1.859695 -13.914673,2.958435 -21.573792,2.38295c-5.126099,-7.124222 -13.293182,-13.79187 -20.992493,-17.719849c-0.390747,-1.268066 -0.781555,-2.536057 -1.172424,-3.804123z"/>
   <path fill="#ff007f" fill-rule="evenodd" stroke-width="1px" id="path2598" d="m382.169769,127.448593l-1.286682,1.67424l-2.222229,-0.45665l0.467834,2.282974l1.520538,1.82634l3.157959,-1.674103l-1.637421,-3.652802z"/>
   <path fill="#ff007f" fill-rule="evenodd" stroke-width="1px" id="path2600" d="m385.561615,127.144287l1.403625,5.783524l2.22226,-1.67424l-2.105347,-2.130737l1.403564,-1.369751l-2.924103,-0.608795z"/>
   <path fill="#ff007f" fill-rule="evenodd" stroke-width="1px" id="path2602" d="m383.222382,125.774414l2.105316,2.283051l-0.701752,-3.043991l2.456207,0.456635l-1.403595,-4.56601l-2.456177,4.870316z"/>
   <path fill="#ff007f" fill-rule="evenodd" stroke-width="1px" id="path2604" d="m380.064423,122.882751l-2.339294,1.978485l-3.041016,-1.065369l1.87146,-2.282898l-1.286621,-1.369766l3.976685,0.608719l0.818787,2.130829z"/>
   <path fill="#ff007f" fill-rule="evenodd" stroke-width="1px" id="path2606" d="m381.234039,119.686569l2.573151,-4.26152l0.93573,-4.565933l1.871338,-1.826401l1.169647,4.870331l1.520538,0.913208l-2.924133,0.760963l1.286621,0.913185l-3.859741,1.522003l-1.520477,2.587372l-1.052673,-0.913208z"/>
   <path fill="#ff007f" fill-rule="evenodd" stroke-width="1px" id="path2608" d="m381.935791,122.273849l1.403534,-4.870316l2.456238,1.369827l3.391937,0.152252l-1.988403,1.674164l-5.263306,1.674072z"/>
   <path fill="#ff007f" fill-rule="evenodd" stroke-width="1px" id="path2610" d="m382.52063,122.730515l-2.807129,1.522003l0.701782,2.130722l1.637512,1.978561l1.988312,-0.608719l-1.520477,-1.522079l1.403534,-1.065308l-1.403534,-2.435181z"/>
   <path fill="#ff007f" fill-rule="evenodd" stroke-width="1px" id="path2612" d="m373.046692,114.511841l3.157959,2.282974l1.052643,-1.674179l0.233917,3.500488l2.456268,1.065445l-0.117035,-1.826416l-0.350861,-3.957108l-3.15799,-1.521927l-0.467865,-1.522003l-2.807037,3.652725z"/>
   <path fill="#ff007f" fill-rule="evenodd" stroke-width="1px" id="path2614" d="m379.01178,117.403534l2.807068,-1.217522l0.350922,-3.196175l-1.637512,-1.217522l-0.233887,2.435112l-1.520599,-1.674149l0.234009,4.870255z"/>
   <path fill="#ff007f" fill-rule="evenodd" stroke-width="1px" id="path2616" d="m389.889282,129.122833l3.625793,4.413696l2.456268,-0.913208l-0.117035,2.282974l2.924103,-0.913208l-1.052734,-5.174728l-3.157898,0.913208l-2.339264,-1.217529l0.584808,-0.913208l-2.924042,1.522003z"/>
   <path fill="#ff007f" fill-rule="evenodd" stroke-width="1px" id="path2618" d="m389.889282,131.405731l0.701691,3.652802l1.988434,-0.304398l0,2.587372l2.339294,-0.152237l0.467773,-2.891693l-2.105316,-2.891846l-3.391876,0z"/>
   <path fill="#ff007f" fill-rule="evenodd" stroke-width="1px" id="path2620" d="m385.678558,134.601883l-0.116943,6.848907l1.403625,-1.217621l1.871399,3.044006l1.403534,-1.826385l-4.561615,-6.848907z"/>
   <path fill="#ff007f" fill-rule="evenodd" stroke-width="1px" id="path2622" d="m383.339325,133.688705l-1.871399,3.196228l1.286591,0l-0.350891,3.804901l1.871429,-1.065384l1.28656,-3.196152l-2.22229,-2.739594z"/>
   <path fill="#ff007f" fill-rule="evenodd" stroke-width="1px" id="path2624" d="m383.80719,129.275009l0,3.804947l1.754425,0l0,2.435211l3.275024,1.369766l0.233856,-3.044006l-5.263306,-4.565918z"/>
   <path fill="#ff007f" fill-rule="evenodd" stroke-width="1px" id="path2630" d="m378.090668,126.478378l-2.573212,1.065308l0.467926,1.065414l-2.573181,1.369797l1.052643,1.674225l1.520538,1.674164l0.935638,-2.587357l1.520508,-1.369858l-0.350861,-2.891693z"/>
   <path fill="#ff007f" fill-opacity="0.75" fill-rule="evenodd" stroke-width="1px" id="path2632" d="m378.07605,126.535461l-2.573212,1.065369l0.467926,1.065353l-2.573242,1.369781l1.052673,1.674225l1.520569,1.674179l0.935669,-2.587357l1.520538,-1.369781l-0.350922,-2.891769z"/>
   <path fill="#ff007f" fill-rule="evenodd" stroke-width="1px" id="path2628" d="m379.01178,126.687622l-1.754486,4.10939l0.584808,0.608719l0.467896,3.957123l2.57309,0l0.117065,-3.348251l-1.286652,-2.130798l-0.701721,-3.196182z"/>
   <path fill="#ff007f" fill-rule="evenodd" stroke-width="0.25pt" id="path5088" d="m377.067322,142.948776c-3.652832,19.281952 -8.459778,38.337708 -10.958405,57.845734c-1.774506,13.854095 -2.274384,28.160538 -1.860931,42.240814c0.137909,-14.035416 0.739502,-28.507782 2.532898,-42.509903c2.479645,-19.360077 6.97821,-38.384399 10.286438,-57.576645z"/>
   <path fill="#ff007f" fill-rule="evenodd" stroke-width="0.25pt" id="path6332" d="m395.328033,146.701675c9.994995,13.912888 20.328217,27.675751 27.193695,43.756744c5.318024,12.456039 7.478638,27.63385 9.357025,41.85434c-1.287628,-14.205109 -3.317505,-29.795166 -8.618561,-42.211731c-6.882538,-16.120468 -17.553162,-30.009109 -27.932159,-43.399353z"/>
   <path fill="#ff007f" fill-rule="evenodd" stroke-width="0.25pt" id="path6333" d="m376.343689,108.510727c-4.755737,-6.255867 -14.35199,-13.364365 -23.467377,-13.18351c-13.372192,0.264671 -26.069458,8.02668 -36.597137,18.29496c10.544861,-10.963371 23.414368,-18.935242 36.648468,-19.102226c8.807831,-0.110916 18.987671,7.174675 23.416046,13.990776l0,0z"/>
   <path fill="#ff007f" fill-rule="evenodd" stroke-width="0.25pt" id="path6334" d="m394.33194,121.828461c16.058563,-3.811584 32.957794,-7.679092 49.41626,-7.80249c13.453094,-0.100845 27.809479,3.407959 40.318634,7.129745c-12.440216,-4.349602 -26.722748,-7.902794 -40.111908,-7.802406c-16.52243,0.123856 -33.702301,4.035744 -49.622986,8.475151z"/>
   <path fill="#ff007f" fill-rule="evenodd" stroke-width="0.25pt" id="path2920" d="m366.108032,124.912537c-11.678711,3.584946 -26.165985,8.233444 -37.15625,15.035324c-10.581573,6.548965 -21.942627,16.535645 -27.486145,25.778427c5.923279,-9.023163 17.213409,-18.721588 27.857941,-25.30954c10.927307,-6.762985 25.266205,-11.414139 36.784454,-15.504211z"/>
   <path fill="#ff007f" fill-rule="evenodd" stroke-width="0.25pt" id="path4163" d="m369.596283,136.808777c-7.352783,4.700699 -15.018494,9.914459 -21.784271,16.17099c-4.686737,4.333939 -8.784363,10.067215 -12.573456,15.600281c4.081512,-5.18425 8.327728,-10.507538 13.012085,-14.83931c6.768188,-6.258698 14.193878,-11.882462 21.345642,-16.931961z"/>
   <path fill="#ff007f" fill-rule="evenodd" stroke-width="0.25pt" id="path4835" d="m436.097961,201.736176c8.098145,6.412323 16.304535,12.880676 24.708099,18.564499c15.269562,10.327545 89.993622,56.415421 103.587921,67.935043c11.657349,9.878204 22.38208,20.806549 33.082031,31.882416c-11.06189,-10.560242 -23.921936,-24.27536 -33.702332,-31.34433c-21.12915,-15.271423 -84.239227,-54.42392 -103.174408,-67.396896c-8.235016,-5.639084 -16.747742,-12.914551 -24.501312,-19.640732z"/>
  </g>
  <g id="g4785">
   <path fill="#ff007f" fill-rule="evenodd" stroke-width="1px" id="path3609" d="m218.99118,128.346161c20.839966,11.875031 40.462067,15.574097 56.887848,31.244293c13.298676,12.686523 21.667725,29.430389 26.888428,45.940369c1.461487,4.621185 3.777985,17.222137 3.671875,22.656891c-0.899536,-2.367188 -1.872833,-5.314026 -2.883026,-7.836395c1.417511,6.756348 1.207794,19.398315 -1.642883,27.768616c-1.894531,-2.852051 -2.224518,-5.704071 -2.632843,-9.213135c-1.973877,1.330505 -3.948242,2.661499 -5.922668,3.992004c0.579132,-1.799316 1.001617,-4.694763 0.328979,-7.370392c-3.181122,0.921112 -6.361786,1.842712 -9.542419,2.763855c-1.816742,-4.840515 -2.772339,-9.754578 -2.632874,-14.741302c-3.05481,-1.139496 -5.249512,-1.403137 -8.226013,-1.228638c-1.876343,-6.170532 -4.22168,-22.636627 -4.845764,-33.845276c-10.120056,-23.694244 -28.220062,-35.852478 -49.448639,-60.130859l0,-0.000031z"/>
   <path fill="#ff007f" fill-rule="evenodd" stroke-width="1px" id="path3567" d="m464.796082,421.331238c10.583069,1.02533 15.872681,1.236206 28.957031,0.307068c-11.325012,-11.209595 -20.582092,-22.317749 -29.861877,-34.012695c-21.218933,-26.741089 -49.906799,-54.824005 -79.384888,-77.776093c-32.329987,-25.172638 -64.98407,-48.135529 -96.742554,-71.557129c-20.011292,-14.758209 -34.994232,-35.811096 -48.700348,-55.587402c-5.379181,-7.761475 -7.903442,-18.10083 -8.555481,-27.025818c-0.335083,-4.587952 3.72937,-9.008606 5.594025,-13.512939c-4.05835,-3.071106 -8.11676,-6.142242 -12.17511,-9.213348c-7.348938,2.866394 -14.697845,5.732758 -22.046783,8.599152c6.361755,9.213379 13.334564,18.11972 19.085266,27.640076c3.46286,5.73288 3.849701,12.779114 7.815033,18.196411c11.171234,15.261627 22.14328,31.580048 36.36084,44.761597c16.439697,15.241882 36.076599,27.589935 53.471619,41.690491c10.135986,8.216248 20.034515,16.320587 30.355438,24.338623c21.748169,16.89563 41.944031,33.711029 61.533478,51.594818c23.614624,21.558411 44.863464,46.401794 54.294312,71.55719z"/>
   <path fill="#ff007f" fill-rule="evenodd" stroke-width="1px" id="path6857" d="m426.175293,346.971802c-2.063538,-1.139771 -10.317505,5.266724 -8.843567,7.546326c4.800781,4.795105 9.601563,9.590149 14.402344,14.385193c-1.558167,-2.240295 6.737915,-8.489624 9.348938,-6.367188c-4.969238,-5.18811 -9.938538,-10.376221 -14.907715,-15.564331z"/>
   <path fill="#ff007f" fill-rule="evenodd" stroke-width="1px" id="path3195" d="m367.049713,296.977417c-2.779388,-2.279572 -11.243958,5.109528 -7.706512,8.489624c4.211182,3.69458 8.927795,7.27124 13.391663,10.72995c-2.231995,-2.476135 4.000671,-10.965759 7.327515,-9.197083c-4.632385,-3.419434 -8.38028,-6.603058 -13.012665,-10.022491z"/>
   <path fill="#ff007f" fill-rule="evenodd" stroke-width="1px" id="path2287" d="m395.660431,335.361816c-2.039459,-2.167694 6.283783,-10.588501 8.532227,-8.670715c6.653778,5.974213 13.486115,11.948364 19.961151,17.922546c-1.702332,-1.329407 -10.640625,6.179016 -8.948242,8.184753c-6.485229,-5.895569 -13.863831,-11.124146 -19.545135,-17.436584z"/>
   <path fill="#ff007f" fill-rule="evenodd" stroke-width="1px" id="path4085" d="m364.385742,295.309631c-2.90448,-1.811066 -9.725281,6.400299 -7.95517,7.890839c-3.70517,-2.325531 -8.926422,-6.419708 -13.263275,-10.160187c-2.00061,-1.782532 5.347534,-9.578552 7.136963,-8.41333c4.693848,3.442993 9.387695,6.885956 14.081482,10.682678z"/>
   <path fill="#ff007f" fill-rule="evenodd" stroke-width="1px" id="path4087" d="m347.487976,282.633331c-2.086121,-0.575653 -7.962402,6.277069 -6.63739,8.177521c-4.172363,-3.60199 -8.470886,-6.49646 -12.64325,-10.098511c-0.968018,-1.434235 5.391602,-7.93866 7.203033,-7.014709c4.067932,3.017853 8.009613,5.917847 12.077606,8.935699z"/>
   <path fill="#ff007f" fill-rule="evenodd" stroke-width="1px" id="path4089" d="m324.951752,278.145569c-0.945892,-1.121643 5.435638,-7.313507 7.01651,-6.784393c-3.650818,-2.920502 -7.680481,-5.605225 -11.331299,-8.525726c-2.102325,-0.94455 -7.868469,5.185577 -7.444031,6.127655c3.793274,3.218048 7.965515,6.082336 11.75882,9.182465z"/>
   <path fill="#ff007f" fill-rule="evenodd" stroke-width="1px" id="path5972" d="m229.911194,147.05304c-0.210205,8.568298 1.606506,21.863464 5.68515,30.362183c2.196228,4.575897 19.687775,28.888153 28.109894,38.438965l-39.669678,-33.015045l-10.612274,-40.089874l16.486908,4.303772l0,0z"/>
   <path fill="#ff007f" fill-rule="evenodd" stroke-width="1px" id="path2870" d="m207.299072,106.05896l-21.591583,5.548981l-0.625854,18.98349l7.823029,22.488098l19.549011,9.931854c3.060486,-10.550934 15.469757,-9.42865 18.277649,-18.918396l0.975616,-15.253876l6.884308,-15.478851l-7.823029,-6.133118l-23.469147,-1.168182z"/>
   <path fill="#ff007f" fill-rule="evenodd" stroke-width="1px" id="path3587" d="m186.269501,120.072693c-14.037933,2.46109 -28.022186,5.243927 -42.114426,7.383453c-25.606857,3.887695 -48.102036,10.778015 -63.288437,21.064636c-11.259323,7.626556 -25.672302,22.367554 -27.223206,25.407837c-0.745392,4.424377 0.813095,8.541656 0.232452,12.812531c1.241135,-3.908905 1.330078,-8.432037 3.722885,-11.726715c-0.387604,2.895447 -0.775711,5.790985 -1.1633,8.686401c2.451431,-3.158661 3.257462,-7.238617 4.886185,-10.858032c0.232452,3.11261 0.045486,5.870697 0.533646,8.800476c0.863647,-2.054626 1.820267,-9.090118 2.956787,-13.143707c1.588303,2.832794 2.326614,14.984131 2.326614,14.984131c1.783875,-5.718567 2.827408,-11.590759 5.351624,-17.155731c-0.996552,4.672302 -0.512436,8.11615 0.465408,11.943878c0.190018,-3.138977 1.038498,-5.586945 2.792038,-8.034943c0.277237,2.551086 1.294952,4.718292 2.559433,6.731934c0.775558,-4.632721 0.7285,-9.342285 2.326767,-13.898315c0.387802,3.185089 0.775543,6.370056 1.163406,9.555115c1.75563,-3.641327 4.087082,-6.591553 6.747635,-9.772247c-0.890839,3.487762 -1.20575,6.514832 -0.698029,9.772247c1.938965,-4.34317 3.87793,-8.686462 5.816925,-13.029663c-0.775604,3.402222 -1.085831,6.370056 -0.930695,9.555054c2.326767,-3.945068 3.257477,-8.324493 5.58429,-12.16095c-0.42662,3.691772 -0.620514,6.623413 0.465317,9.772217c2.481903,-3.836548 5.429138,-6.804382 8.841782,-10.206604c0.853134,3.11264 1.706299,6.225311 2.559433,9.337921c1.783875,-5.465179 5.196518,-9.193085 9.539825,-13.463928c-1.279739,3.293549 -0.465378,6.261383 0,8.903595c1.667496,-4.99472 4.033066,-8.577911 7.445663,-13.029694c0,3.836578 0,7.673065 0,11.509583c2.249237,-4.415588 4.498444,-8.831299 6.74765,-13.246887c-1.202118,4.126068 -1.822601,7.383514 -1.861404,10.423798c1.473648,-4.560394 5.274048,-7.600708 6.514969,-12.378235c-0.387802,4.668945 1.551208,8.686493 2.326767,13.029724c1.434891,-5.030914 3.567749,-9.518951 6.747696,-14.115509c0.07756,2.17157 0.155136,4.343201 0.232651,6.514832c1.473648,-3.619385 5.739426,-6.478638 7.213058,-10.098022c0.072723,5.398407 2.947296,6.044342 5.816956,9.446503c0.418274,-3.917664 4.620758,-13.824066 7.671509,-16.973907c4.511475,-2.005951 14.822296,-8.23465 16.721893,-9.760742l0.968231,-2.582031l0,0z"/>
   <path fill="#ff007f" fill-rule="evenodd" stroke-width="1px" id="path3611" d="m202.867279,112.069275c-1.316254,-4.760254 -5.758514,-7.831421 -6.910187,-12.898743c1.316223,0 2.632477,0 3.9487,0c-0.658142,-3.378204 -1.316223,-6.75647 -1.974396,-10.134674c2.522766,-2.149811 5.045532,-1.228455 7.568298,-1.842712c-0.05484,-4.04364 0.21936,-9.929947 -1.316223,-13.512955c4.661652,-2.712814 6.690826,-1.586731 11.187897,-1.228394c2.577606,-5.528015 9.27829,-9.3013 11.187988,-13.820099c5.6586,-1.265182 11.352417,-2.764008 17.933472,0.307098c-1.700043,1.791534 -1.919373,3.275894 -1.645203,5.835175c3.893829,-1.279633 14.533295,-0.40947 20.566071,6.142212c-2.851868,0.102432 -5.868286,-0.716568 -8.555511,0.307159c1.645294,2.252182 3.290527,4.504303 4.935822,6.75647c-2.193756,1.433182 -4.387421,2.866379 -6.581177,4.299576c-0.32901,1.842651 -0.658051,3.685364 -0.987091,5.528015c-4.935883,1.637909 -9.378113,4.964935 -14.807556,4.913757c2.138855,1.433197 3.61969,3.480621 3.948639,6.142273c-4.167999,2.252106 -8.006989,5.579193 -12.50412,6.75647c-1.425903,3.736481 -5.155182,4.248383 -6.252045,7.984863c-4.497101,1.330902 -8.1716,-3.941223 -11.516998,-2.456848l-2.632385,7.984863l-8.555481,-1.535492l2.961487,-5.528015z"/>
   <path fill="#ff007f" fill-rule="evenodd" stroke-width="1px" id="path3613" d="m202.867279,116.829498c-3.948669,-5.220917 -15.959229,-8.292023 -19.907928,-13.512939c-3.619568,0.921295 -11.516937,-1.689117 -12.175049,0.767731c-2.906708,-2.610474 -8.115387,-3.361572 -10.515137,-5.153137c0,0 1.316254,-4.606689 0,-5.220886c-1.151703,1.07486 -1.206512,0.639771 -4.935822,2.380066c-5.237518,-2.098572 -3.976135,-2.047394 -8.06189,-4.453125c2.632431,-2.687195 2.961517,-3.455017 6.087524,-5.911926c-4.140625,1.126099 -5.319733,3.557434 -10.365265,3.455078c-1.557465,-3.193726 -2.698456,-6.550293 -3.654282,-9.693604c-3.249832,-0.131165 -4.438812,0.000397 -8.407455,0.430206c-0.909332,-3.459457 -1.077911,-4.457794 -1.957062,-8.179764c-2.795395,-1.670975 -5.974915,0.326843 -8.355927,-0.326965c0.176483,-1.71138 0.356552,-3.255524 0.947983,-5.171585c1.197357,-0.876617 5.347214,-2.822723 8.170151,-3.297424c0.496124,-1.560486 0.797089,-2.758652 1.189697,-4.339066c3.837479,1.664063 21.299011,3.632568 29.492157,9.089371c0.191284,1.844147 0.548431,5.425659 0.987152,7.831375c0.822662,-1.740341 0.822662,-3.480621 1.480774,-5.067368c1.645325,0.972549 7.486084,2.175369 9.213623,3.685364c-1.316223,2.047394 -1.645294,2.866379 -1.974365,3.992462c1.124298,-1.023712 2.084045,-1.970688 3.290588,-2.610504c6.690826,3.685364 20.456268,19.501648 27.147125,23.186981c1.864624,5.016174 3.235718,5.502441 5.100342,10.518616l-2.796936,7.601044z"/>
   <path fill="#ff007f" fill-rule="evenodd" stroke-width="1px" id="path3615" d="m203.525421,116.368835c17.549622,-6.551727 33.103577,-15.020447 51.020233,-20.95816c16.611359,-5.505157 35.622284,-9.64444 52.961487,-10.981537c17.049408,-1.314697 45.138733,7.963623 52.319977,11.670227c7.297241,3.766479 14.764435,8.56189 20.40152,13.820099c-6.032715,0.716614 -12.065399,2.193237 -18.098083,2.149811c-8.582153,-4.268524 -15.651733,-10.05719 -24.35022,-14.434296c3.72937,3.173462 7.458618,6.346954 11.187958,9.520416c-7.388885,-3.877655 -14.312286,-7.538147 -20.072479,-12.284424c1.392639,3.992462 4.414063,7.984863 5.923065,11.977386c-6.032745,-3.378265 -12.763489,-6.213593 -18.098114,-10.134735c0.069763,2.764008 0.953918,5.419434 2.303345,8.292023c-2.871674,-0.781677 -5.859894,-2.757782 -7.568207,-4.299561c-2.974823,0.992645 -5.833252,2.63678 -8.22644,4.606659c-3.812408,-0.440491 -8.788177,1.073364 -12.833221,0.307159c-0.37558,1.842651 0.412109,3.902466 1.316223,5.528015c-16.788483,-2.984406 -33.50885,-3.741333 -50.016541,-2.764069c-12.88797,0.76297 -25.446991,5.323364 -38.170502,7.984985z"/>
   <path fill="#ff007f" fill-rule="evenodd" stroke-width="1px" id="path3601" d="m207.473999,118.825745c9.323303,-3.992523 18.509613,-8.36734 27.969849,-11.977386c10.208801,-3.895752 19.66571,-5.605408 32.829254,-5.813354c18.408356,-0.290741 33.848328,8.640167 45.010468,19.698334c7.061066,6.995239 12.065826,19.072174 12.979797,26.653809c-3.350464,-2.962585 -5.421112,-5.816528 -6.910156,-9.213379c-2.130554,2.022552 -3.446777,4.479462 -3.948669,7.370667c-2.027557,-3.282013 -3.12439,-5.912628 -3.290527,-9.520447c-1.007111,3.977051 -1.316254,4.913788 -1.974365,7.370697c-2.000916,-3.462036 -3.88562,-7.358307 -4.606812,-11.363129c-1.056976,4.445374 -2.928284,8.022156 -5.264893,11.05603c-0.219421,-3.275909 -1.485779,-5.683136 -0.658112,-9.827606c-3.52005,3.083496 -2.851807,5.732758 -4.27774,8.599152c-0.877472,-3.992462 -3.034698,-7.442017 -2.632416,-11.977356c-1.645294,2.763947 -3.290588,5.527985 -4.935883,8.291992c-1.535614,-5.323303 -4.467255,-9.56073 -4.606781,-15.969818c-1.425934,4.299561 -3.782501,8.381958 -4.27774,12.898712c-5.570801,-4.882751 -9.280121,-10.199799 -12.175079,-16.276917c0.930695,2.661591 0.465363,4.671783 0,7.984863c-3.968597,-0.775513 -6.773834,-1.98526 -10.858887,-4.606659c-1.206482,0.818939 -2.413116,1.637939 -3.619568,2.456848c-3.47345,-1.671936 -5.667145,-3.995453 -6.581116,-8.599121c-2.203613,4.361694 -4.407227,5.248779 -8.472198,7.004517c-2.615967,-0.303894 -4.251129,-0.359619 -5.942993,-1.06076c1.096802,-3.173523 0.215881,-3.496735 0.847473,-6.697449c-3.141052,3.210785 -2.006531,3.327026 -5.351074,4.854736c-3.9487,0.307129 -14.644989,0.505676 -18.593658,0.812775c-0.219391,-0.716553 -0.438751,-1.433167 -0.658173,-2.14975z"/>
   <path fill="#ff007f" fill-rule="evenodd" stroke-width="1px" id="path3591" d="m203.022552,113.5578c-13.551483,-7.148743 -38.378998,-19.87851 -57.431534,-20.371338c-20.253235,-0.523956 -40.409531,5.640594 -47.273529,9.947632c3.8004,-0.181 7.251801,0.289551 10.703171,1.085785c-3.567719,2.64212 -4.808685,4.958496 -7.213028,8.903564c2.753372,-3.076385 5.274063,-2.895447 7.911057,-4.34314c-0.736801,2.533539 -3.335022,4.089874 -3.955505,6.949127c3.29628,-0.977203 5.196472,0.217102 8.841766,-0.65152c-1.085831,3.004089 -3.916748,5.465271 -4.653564,8.686523c2.869675,-1.41153 5.972076,-1.085846 8.60907,-2.605957c0.038803,2.823059 1.124634,4.234619 1.86142,7.16629c2.598236,-1.592499 3.684067,-4.488007 6.049637,-6.080505c1.861435,2.750702 1.628738,5.392822 3.490173,8.252136c1.938995,-3.981293 4.343338,-6.333893 5.81694,-9.98938c0.659256,2.280151 2.94725,3.691711 3.722855,5.863281c0.34903,-3.438385 2.908493,-6.659576 3.490173,-9.98938c1.51239,5.248047 1.51239,10.387543 2.792145,15.418488c0.193878,-4.053741 0.969482,-8.107391 2.326767,-12.161072c0.155106,4.017456 0.775604,7.383453 2.443115,11.075226c1.396088,-4.705109 2.559448,-8.75885 2.210449,-13.463959c1.473633,3.981293 2.947266,7.962524 4.420898,11.943817c-0.077606,-2.967865 -0.155151,-5.93576 -0.232666,-8.903625c1.00824,2.026825 2.016479,4.05368 3.02475,6.080505c-0.775574,-6.225311 -2.365509,-12.233368 -2.326782,-18.675842c1.745087,6.225311 5.118927,13.319214 7.678406,19.97879c-0.930725,-5.139465 -1.047089,-10.061798 -1.977753,-15.201233c0.83902,0.67511 1.598206,0.80722 1.861389,1.194427c1.473633,4.05365 3.528992,6.69577 7.09671,10.532288c0.310181,-2.461182 1.318512,-4.922363 3.024811,-6.732025c1.628723,-0.434326 20.747101,-2.207764 23.616821,-2.17157l4.071838,-1.737335z"/>
   <path fill="#ff007f" fill-rule="evenodd" stroke-width="1px" id="path3593" d="m74.58432,120.072693c4.596558,-2.24826 23.251648,-9.173706 39.949615,-12.579895c9.206848,-1.878082 30.038467,-2.856842 39.410126,-2.044464c15.679993,1.359253 29.533539,4.27298 45.122955,7.023682l-9.772461,5.429047c-11.255493,1.079163 -20.199768,2.803894 -31.298584,5.233643c-7.748077,1.696289 -17.486206,4.558289 -25.242142,7.144501c-1.861435,-3.040222 -4.545502,-5.619781 -5.58429,-9.120728c-6.632462,5.626526 -14.08757,10.17807 -21.871735,14.115448c1.861435,-2.17157 3.722855,-4.343201 5.584274,-6.514832c-3.102356,0.796295 -6.204742,1.592499 -9.307098,2.388794c1.473633,-2.967865 2.94725,-5.93576 4.420883,-8.903625c-3.024826,1.882019 -6.049637,3.764191 -9.074448,5.64621c1.706299,-2.099243 3.412598,-4.198456 5.118896,-6.297729c-5.031921,2.072906 -9.899338,5.8349 -15.589417,7.600677c1.396088,-1.375366 2.792145,-2.750702 4.188202,-4.126068c-2.559464,0.868591 -5.118927,1.737274 -7.678375,2.605896c-3.285706,-1.919281 -4.103485,-4.45282 -8.376404,-7.600555z"/>
   <path fill="#ff007f" fill-rule="evenodd" stroke-width="1px" id="path3589" d="m176.962616,135.708282c-16.752808,13.681091 -26.939789,21.049225 -42.347366,35.831573c-6.774399,6.499451 -24.419998,27.647003 -28.619385,35.831604c-6.348663,12.373322 -9.53981,20.485474 -11.40123,33.225616c0.272598,3.193787 1.203308,6.234039 2.792145,9.120728c0.232666,-1.664856 0.465347,-3.329773 0.698029,-4.99469c0.93071,1.085846 1.86142,2.171631 2.792145,3.257477c0.575821,-4.99472 -0.329071,-9.989441 0,-14.984131c1.085815,1.954437 2.171661,3.908905 3.257477,5.863312c1.19162,-2.081635 1.725128,-4.623993 2.094086,-7.16629c1.450134,2.261566 3.969635,3.448242 5.58429,5.863342c-0.968353,-3.474518 -1.278595,-6.949188 -0.930725,-10.423706c2.016541,1.88205 4.033096,3.764069 6.049637,5.646149c-1.318512,-3.257416 -2.637039,-6.514832 -3.955521,-9.772247c1.861404,2.026886 3.722839,4.05368 5.584259,6.080505c-0.561737,-2.311981 -0.794403,-4.54718 -0.698029,-7.16629c2.272736,2.529114 3.969635,4.904724 5.58429,7.81781c-0.054047,-3.049072 -0.601669,-5.790985 -1.396088,-8.686493c0.853149,1.59256 1.706314,3.185059 2.559448,4.777557c-1.00824,-3.691742 -2.016541,-7.383453 -3.02478,-11.075195c1.84201,2.768768 4.963791,4.343262 7.445679,6.514832c-1.589981,-2.461121 -2.889099,-5.628082 -3.72287,-8.686462c2.03595,2.008728 3.373871,3.800323 4.886261,6.514893c1.027664,-3.510803 0.310242,-7.23877 0.465347,-10.858124c1.628738,1.88205 3.257492,3.76413 4.886246,5.64624c0.1745,-2.569763 -1.396088,-4.922363 -2.094116,-7.383514c1.86145,2.533539 3.839203,4.5242 5.58429,7.600616c-1.396088,-5.682373 -3.315674,-11.364746 -5.58429,-16.721375c2.656403,3.275513 4.033096,7.093933 6.049637,10.640869c-0.484741,-4.614655 -2.016541,-9.120728 -3.024796,-13.681152c1.977737,5.175659 5.118912,8.831238 7.678375,13.246826c-0.542923,-2.099213 -1.085846,-4.198456 -1.628754,-6.297607c1.861389,-0.506775 3.141144,-0.524902 4.88623,-0.217224c-2.423737,-4.451813 -4.033081,-9.120758 -6.049622,-13.681122c2.326767,3.76413 4.653564,7.528259 6.980331,11.292389c-0.155106,-2.605927 -0.310226,-5.211884 -0.465363,-7.81781c1.628769,0.361908 3.257492,0.723877 4.886246,1.085785c0.155121,-1.737274 0.310242,-3.474518 0.465332,-5.211823c2.016571,0.579102 4.033081,1.158173 6.049622,1.737244c-0.697998,-2.750702 -1.396057,-5.501404 -2.094055,-8.252136c1.938965,1.085846 2.772705,2.443085 3.722839,3.908936c1.163391,-2.461121 2.326752,-4.922333 3.490143,-7.383453c0.85318,0.361908 1.706329,0.723816 2.559479,1.085785c0.135712,-2.624054 -0.252045,-5.193817 0.930695,-6.731995c0.387817,-5.537598 7.630951,-24.889099 11.052216,-29.85968l-1.977783,-5.537567z"/>
   <path fill="#ff007f" fill-rule="evenodd" stroke-width="1px" id="path3597" d="m200.230438,122.0271c-1.86142,17.590088 -7.290802,28.78125 -15.589417,45.169495c-6.366852,12.573334 -13.775696,29.433624 -16.985474,45.603851c-2.203796,11.102203 0.397034,31.284912 3.490173,35.274567c1.163361,-0.943298 1.245483,-1.145386 3.102203,-1.989777c1.508942,2.967834 1.454163,5.07785 3.264771,7.552399c-0.25174,-2.503784 0.690765,-3.862579 1.13031,-5.413574c0.686371,1.13623 6.456482,12.406433 6.456482,12.406433c0.914185,-2.355743 1.14447,-4.481262 2.799011,-7.220917c1.02951,4.415619 3.633728,5.595673 5.979462,9.396973c-0.174072,-5.970825 -0.853424,-7.938354 0.535522,-12.220062c1.111664,3.147736 3.21048,5.681335 6.049652,7.600616c-1.551208,-4.777527 -3.102356,-9.555084 -4.653595,-14.332611c3.694672,3.147736 7.882813,5.527771 12.564606,7.600677c-2.359741,-4.492371 -3.567688,-8.831268 -5.351593,-13.246826c4.037781,1.853516 7.911041,2.17157 11.866608,3.257416c-0.853149,-3.474609 -3.642883,-18.392853 -6.282318,-24.10495c2.742828,0.18866 4.498444,-1.158203 6.74765,-1.737305c-0.949554,-2.669525 -0.82959,-5.338989 -1.86142,-8.469238c1.938965,0.579102 3.87793,1.158173 5.816925,1.737244c-0.542908,-4.126038 -0.6745,-8.252045 -1.628754,-12.378082c1.240997,-2.533569 2.481934,-5.067139 3.722839,-7.600708c-1.845001,-6.407288 -0.975342,-14.196625 -2.326721,-21.064606c-5.10376,-3.654388 -15.634247,-27.330078 -13.960693,-44.300842c-1.628723,-0.506714 -3.257477,-1.013428 -4.88623,-1.520172z"/>
   <path fill="#ff007f" fill-opacity="0.126531" fill-rule="evenodd" stroke-width="1px" id="path3145" d="m211.121796,154.888336c0.819519,7.265778 1.460388,14.740021 -0.891418,22.360199c2.021393,3.851807 3.06012,5.577484 4.456177,9.721069c-1.844055,2.727386 -3.129761,6.371948 -4.70578,9.974792c-0.353363,4.637878 -0.81842,10.943329 -4.611115,15.330963c1.473938,2.456451 2.534637,4.73587 4.008606,7.192322c-0.273743,-0.805695 -0.502777,-1.382202 -0.854706,-2.14624c1.372131,0.243347 5.424164,-0.857819 6.606445,-2.292419l8.590912,-28.652466c-4.199707,-10.496094 -8.086731,-21.075531 -12.599121,-31.48822z"/>
   <path fill="#ff007f" fill-rule="evenodd" stroke-width="1px" id="path3874" d="m202.55954,135.203003c-0.673767,9.825958 1.643219,20.437744 0.252655,30.185303c-2.567932,18.000946 -6.569489,35.845062 -9.854248,53.767609c2.863678,-18.001129 6.017975,-35.967926 8.590881,-54.003418c1.385651,-9.712952 -0.084198,-20.202118 1.010712,-29.949493z"/>
   <path fill="#ff007f" fill-rule="evenodd" stroke-width="1px" id="path2402" d="m197.447418,136.840698c0.569092,3.384949 1.406281,6.14444 2.332703,9.445984c-1.431763,-0.23584 -2.863586,-0.471649 -4.295441,-0.707489c0.663605,2.829895 1.371857,5.65976 2.526733,8.489624c-1.347565,-0.864655 -2.695129,-1.72934 -4.042755,-2.594055c0.410889,2.792969 0.911133,5.419159 1.768707,8.253815c-0.926422,-0.23584 -1.852936,-0.471649 -2.779419,-0.707489c0.326721,1.613861 2.095428,3.623138 2.779419,5.07019c-0.589569,0.157257 -1.305481,-0.157166 -1.89505,0c0.054901,3.028809 0.712128,6.716187 -0.126343,9.786652c-2.408081,1.583984 -2.628754,2.066376 -4.902802,4.817627c1.435577,4.074493 2.115814,9.752167 2.881409,13.576569c-2.383789,1.358948 -2.290588,2.296265 -4.674438,3.655243c1.299133,4.633087 0.022919,11.791138 1.768707,16.507599c-1.729187,0.800262 -4.789307,3.197937 -6.948517,2.358215c-1.209747,0.739594 -2.855957,2.409485 -3.663757,3.065704c1.831879,3.773163 0.252686,17.804626 1.010681,23.464355c-1.058044,-0.383209 -3.553192,-0.869598 -4.37439,-1.400177c-1.010681,1.748962 -1.89505,4.957214 -2.400391,6.765167c-0.431641,0.270233 -0.847473,0.628876 -1.16861,0.987549c-3.032074,-5.581146 -5.827271,-11.855042 -8.859344,-17.436188c4.295441,-18.315552 8.590881,-36.631134 12.886322,-54.946716c5.221924,-6.524384 10.04184,-13.215637 15.263763,-19.740082l1.665314,-3.370544l-4.800781,-13.441925l5.558807,-11.083649l4.62738,-5.16687l1.9021,4.490265l-0.822601,4.40686c1.263336,2.829895 2.482056,6.576904 4.147369,9.23999c-1.937103,-1.414948 -3.427612,-1.954407 -5.364777,-3.786224z"/>
   <path fill="#ff007f" fill-rule="evenodd" stroke-width="1px" id="path3595" d="m191.156006,126.804626c-10.237854,23.887726 -33.505676,42.563599 -46.070236,65.799805c2.326767,-0.615234 2.792114,0.289551 4.188187,0.434326c-4.847443,5.356628 -9.11322,11.473328 -12.099243,17.372925c0.775604,-0.072357 1.551178,-0.144775 2.326767,-0.217163c-4.071854,5.93576 -7.096695,11.980042 -8.376389,18.458679c1.783844,0.28952 2.171646,1.447754 3.257477,2.171631c0.34903,5.465179 -2.210419,13.427826 -1.396057,20.630341c0.930695,-1.664917 1.861435,-3.329834 2.792114,-4.994781c2.249222,3.655609 2.171692,7.854004 4.653564,11.292389c-0.038773,-2.642059 1.551178,-4.52417 3.024811,-6.297607c1.86142,1.954407 1.163391,4.994659 3.490158,6.514832c-0.659225,-3.329895 0.775604,-5.791016 1.163406,-8.686523c2.249237,4.053711 3.335052,7.455872 3.955536,10.858093c2.210419,0.94104 3.024811,0.579071 4.886261,0.325745c-0.077576,-1.918243 0.310181,-3.184967 0.465302,-4.886108c1.628784,-0.180969 2.559448,1.266785 4.188263,1.085846c1.00824,-1.954468 1.085785,-3.691833 3.024811,-5.863403c1.163391,-0.506683 2.326752,-1.013397 3.490112,-1.520172c-1.085815,-1.954407 -2.171631,-3.908875 -3.257446,-5.863342c1.551147,1.085846 3.102356,2.1716 4.653503,3.257446c1.667542,-3.872711 -0.387726,-8.831207 1.163422,-13.898315c1.318542,0.94101 2.637054,1.882111 3.955536,2.82309c-1.00827,-5.646149 -0.387817,-11.509491 -3.024811,-16.938538c1.861389,-1.447815 3.024811,-3.438416 5.58429,-4.343262c3.451324,1.266815 5.273987,-1.158142 7.91098,-1.737274c-1.861359,-3.945038 -0.930664,-7.238739 -1.396057,-10.858063c2.404358,-1.121979 4.343323,-3.329773 6.515045,-4.99469c-0.310303,-5.827118 -6.592529,-14.477356 -6.282318,-19.327362c2.792145,-1.483887 2.792145,-4.05365 7.678345,-6.080536c1.085815,-5.501373 0.529694,-11.318176 -2.326782,-18.458649c-3.346649,-8.365967 3.567719,-17.372833 5.351654,-26.059296l-3.490204,-0.000061z"/>
   <path fill="#ff007f" fill-rule="evenodd" stroke-width="1px" id="path3139" d="m184.284515,147.486298c-7.265656,14.674194 -15.309814,28.562134 -21.529327,43.60556c-5.15564,12.470764 -8.486633,26.096619 -12.595947,38.936707c4.466644,-12.784454 8.219513,-25.822601 13.400024,-38.352814c6.194611,-14.983704 13.81665,-29.459686 20.72525,-44.189453l0,0z"/>
   <path fill="#ff007f" fill-opacity="0.191837" fill-rule="evenodd" stroke-width="1px" id="path3141" d="m173.502136,148.409088l-9.538391,20.8703l2.716217,-3.773163l0,5.777649l4.295441,-5.18808l1.89505,7.192596l2.400391,-4.834381l3.916412,3.537354l4.674469,-12.734436l2.526733,3.183594l2.147705,-4.421661l2.400421,0.294769l-4.800812,-15.328491l-12.633636,5.42395z"/>
   <path fill="#ff007f" fill-rule="evenodd" stroke-width="1px" id="path3573" d="m195.29895,115.140381l1.645325,4.299561c-0.438782,0.614197 -0.877502,1.228455 -1.316223,1.842651c1.572052,5.630402 5.703644,11.260773 8.55542,16.891174c-2.961456,-4.606689 -5.923035,-9.213379 -8.884521,-13.820007c1.469086,6.998474 5.264923,12.69397 7.897339,19.040924c-2.632416,-3.78775 -5.962921,-6.815369 -7.897339,-11.363129c1.04364,8.406799 3.9487,16.379303 5.923065,24.56897c-2.941559,-4.125885 -6.581146,-7.165955 -9.871704,-10.748932c3.227448,6.263214 3.662781,11.875 7.239258,17.8125c-3.303894,-3.340973 -6.607758,-7.224884 -9.213654,-11.977325c1.974396,5.425598 3.483337,11.177002 5.923035,16.276886c-3.200806,-4.991302 -6.168976,-10.091278 -8.55542,-16.276886c1.316223,6.551666 2.167084,13.103424 3.948669,19.655151c-2.988159,-6.02124 -5.045532,-12.69397 -7.568329,-19.040955c2.000977,7.473022 3.53656,14.837524 4.606812,22.419159c-2.173767,-6.474182 -4.58017,-12.079742 -7.568298,-18.119598c1.35614,6.954987 1.316223,14.127136 1.974304,21.190704c-1.535553,-4.504303 -3.071198,-9.008636 -4.606781,-13.512939c-0.21936,5.323273 0.259338,10.755157 -0.658081,15.969849c-0.734528,-4.836273 -2.516144,-8.478088 -3.9487,-13.20578c-0.6315,4.209625 -1.612,8.093445 -3.290558,11.977325c0.026611,-4.305786 -0.41214,-8.394379 -1.316223,-12.591583c-0.515167,3.198334 -2.193695,5.528015 -3.290558,8.292023c0.877472,-3.480621 1.056915,-6.74408 2.632477,-10.441833c-2.679077,1.926422 -3.72934,4.504303 -5.593964,6.75647c-0.658173,-2.010132 -1.316254,-5.540405 -1.974396,-7.984924c1.425934,-2.763947 2.386536,-4.767944 4.277771,-8.291962c-1.754944,2.047363 -3.277252,4.529175 -5.264923,6.142212c1.316223,-4.60672 2.050781,-8.996216 3.9487,-13.820038c-2.981476,1.920197 -4.79953,5.360535 -7.897339,7.063568c1.838013,-4.643982 3.908752,-8.093475 6.910187,-11.977386c-2.2901,1.771362 -4.812866,2.999817 -7.568329,3.685364c1.831421,-2.87262 4.128113,-5.528015 7.239288,-8.292023c-3.071198,1.842651 -6.142426,3.685303 -9.213623,5.528015c2.200378,-3.012238 3.353699,-4.830078 6.252106,-6.7565c-2.742157,0.921356 -5.484314,1.842682 -8.22641,2.764008c5.354401,-5.459717 13.339081,-13.324127 23.508942,-18.767883c4.747406,-2.541199 15.75174,-4.398926 21.242676,-5.186829z"/>
   <path fill="#ff007f" fill-rule="evenodd" stroke-width="1px" id="path3585" d="m221.175293,127.43988c10.413147,6.713837 24.066101,10.457916 32.177917,18.681213c13.443726,13.628204 24.257141,34.401215 27.664673,50.557404c1.879883,8.912201 2.787476,18.426727 2.303864,27.64032c-1.261841,-1.126282 -1.349274,-4.515533 -3.236725,-7.978363c-0.979889,3.440186 -3.289825,5.930939 -4.660828,6.596436c-4.393982,-7.926941 -7.927368,-15.853882 -10.365143,-24.876007c0.311279,-9.784271 -2.193695,-19.860138 -3.290802,-29.79007c-2.583862,3.320282 -3.290344,7.370636 -4.93573,11.055969c-1.705566,-5.190735 -1.847046,-8.264221 -0.657959,-13.820038c-2.187653,4.159607 -5.548187,7.735077 -9.378235,10.288269c-0.10965,-4.350739 -1.079895,-7.898315 -0.328979,-13.052216c-1.763153,1.55658 -3.135162,2.31012 -5.758392,2.917511c-1.776825,-6.873108 -2.536835,-13.235199 -1.81015,-19.96228c-1.590332,0.25592 -3.180664,0.511841 -4.770996,0.767761c-2.674805,-6.488007 -7.148621,-13.341064 -12.952515,-19.025909l0,0l0,0z"/>
   <path fill="#ff007f" fill-opacity="0.347134" fill-rule="evenodd" stroke-width="1px" id="path4081" d="m337.16156,287.132111c-20.126526,-16.212921 -41.707306,-33.661224 -61.332642,-47.604767c-14.13324,-10.041534 -25.346619,-24.43512 -36.29892,-37.966949c12.78125,13.003937 23.647583,25.680328 37.742981,36.147491c22.704987,16.860657 51.375275,36.79837 75.558014,56.186737m0,0c23.172791,18.578583 47.787537,37.216553 68.481262,58.073395c19.777527,19.933289 35.593994,40.400635 46.02478,65.711975c-13.455688,-28.231812 -34.289795,-48.07196 -56.638916,-69.508728c-22.815887,-21.884521 -48.706726,-41.037445 -73.53656,-61.039154"/>
   <path fill="#ff007f" fill-rule="evenodd" stroke-width="1px" id="path3599" d="m211.705597,138.021576c9.631409,21.22879 30.518372,49.80365 38.895996,71.431427c4.977142,12.848114 7.44577,26.493744 9.194275,40.047913c-1.395782,1.809692 -2.442841,3.18454 -4.071564,4.777283c-0.349213,1.701233 -0.52356,3.483582 -0.37851,4.858917c-1.599426,1.266815 -3.926056,2.126617 -4.740662,2.850128c1.861694,2.13562 2.443359,5.248016 2.908783,7.926483c-2.210907,0.723969 -4.188324,1.447968 -6.282471,3.474609c-0.775696,2.750641 -3.063904,4.632965 -5.119171,6.297882c-0.309753,-2.786957 -2.365509,-5.139526 -3.72287,-6.732269c-1.008179,0.832458 -2.597992,1.556427 -4.420776,1.520111c-0.193542,-2.533203 -2.714722,-6.370026 -3.489929,-8.46933c-2.055237,-0.398071 -3.180115,-0.796143 -5.351593,-1.954041c0.194031,-3.981628 0.038391,-7.528381 -1.1633,-11.292603c-2.133087,-0.470703 -3.567749,-0.289581 -6.050018,0.21698c1.008667,-3.003937 2.365509,-6.116302 4.421265,-8.68631c-2.171967,-0.144806 -4.343445,-0.289581 -6.515411,-0.434387c0.155121,-3.981171 -0.503845,-7.745361 0.465424,-11.943939c-1.706055,-1.411194 -3.296387,-2.062988 -5.816559,-3.908539c1.900116,-2.461517 2.520172,-4.162262 2.559082,-6.080444c-2.249298,-3.329834 -4.498077,-6.659637 -6.747375,-9.989471c3.878021,-4.234894 4.213562,-9.997009 4.316162,-15.209137c1.292175,-3.036469 2.707153,-6.712952 5.116638,-9.412628c-1.03244,-4.15979 -2.707153,-6.286469 -4.454132,-10.086823c1.970856,-8.986969 1.930939,-27.434143 -2.223511,-38.113312l2.670227,-1.088501l0,0z"/>
   <path fill="#ff007f" fill-rule="evenodd" stroke-width="1px" id="path3143" d="m215.72998,148.987061c8.218628,12.784302 16.758484,25.991394 22.154694,39.85376c6.634064,17.042328 10.481781,34.906677 13.936005,52.860291c-4.109344,-18.175964 -8.352905,-35.930573 -15.007996,-53.0271c-5.375122,-13.808228 -13.519165,-26.457947 -21.082703,-39.686951z"/>
   <path fill="#ff007f" fill-opacity="0.151786" fill-rule="evenodd" stroke-width="1px" id="path10359" d="m212.709229,140.685822c4.746521,9.63855 10.613464,18.99939 15.749786,27.908966c4.31778,7.489655 8.831421,15.008179 13.117584,22.472015c-1.294464,-0.161102 -2.545807,-0.604126 -3.840302,-1.490082c-0.5466,2.443207 -1.09317,4.403137 -2.934204,6.121429c-2.876709,-1.718292 -5.319611,-2.849426 -7.07666,-6.121429c-1.674042,-3.11734 -0.115051,-10.336578 -0.690399,-15.625732c-2.761627,-1.127625 -4.142487,-2.013641 -5.695831,-4.349487c0.373962,-2.71167 0.230164,-5.584381 -0.172546,-8.376648c-2.847931,-2.65802 -5.523224,-4.510498 -8.802612,-6.282532c-0.417114,-5.383087 -1.395172,-10.685638 -3.106842,-15.827118l3.452026,1.570618z"/>
   <path fill="#ff007f" fill-rule="evenodd" stroke-width="1px" id="path3603" d="m212.080841,121.896851c10.858856,-0.409515 31.25769,-1.814423 41.807831,-0.060211c27.300873,4.539368 41.095673,9.159149 64.19043,22.599823c10.811554,6.292145 25.025818,21.758301 30.889191,32.126312c-1.154388,-0.431061 -2.543457,-2.176392 -3.932587,-3.191559c2.187073,3.459442 4.151001,11.798737 4.349487,15.060364c-2.18808,-1.952087 -3.712219,-2.355408 -6.010864,-2.655426c0.337585,3.79126 -0.431213,6.963013 -1.974396,10.134674c-2.742035,-4.811371 -5.484222,-9.622833 -8.226349,-14.434235c0.555084,4.507813 0.446289,8.499481 -0.658081,12.284485c-3.94873,-9.929932 -9.778198,-17.898041 -11.846039,-29.789886c0.007599,6.364746 -1.423065,8.599182 -2.632477,12.898743c-1.871277,-2.862854 -3.078735,-6.551727 -3.290527,-9.827576c-3.509979,-0.297363 -6.466797,-1.420807 -10.529877,-4.299561c-1.120667,1.563995 -2.822266,2.689209 -4.60675,3.685303c-2.406464,-4.302277 -5.919281,-8.320465 -9.542603,-11.977386c-1.210419,2.304688 -1.701569,4.170471 -2.303436,6.449371c-1.754974,-2.866394 -3.509918,-5.732758 -5.264954,-8.599121c-2.303345,0.307098 -4.60675,0.614197 -6.910126,0.921295c-0.10968,-3.173492 -0.21936,-6.346954 -0.32901,-9.520477c-2.538971,2.514069 -5.234375,4.079041 -8.555511,4.913818c-2.837311,-4.386902 -6.848083,-8.992828 -10.858887,-12.284515c-1.316193,1.330841 -2.632477,2.661652 -3.9487,3.992493c-1.487152,-4.226563 -1.87915,-8.526123 -1.645172,-12.898712c-4.011658,1.195313 -6.615082,2.390594 -10.157257,4.462036c-4.065948,-1.481415 -19.496033,-6.457947 -26.003784,-7.604645l-2.009552,-2.385406z"/>
   <path fill="#ff007f" fill-rule="evenodd" stroke-width="1px" id="path3607" d="m218.590942,128.758698c23.582489,11.363129 53.38681,23.149445 75.753906,36.13385c9.551575,5.544708 17.143372,13.916534 25.008606,21.497803c5.516357,5.317474 10.090729,11.465363 15.136108,17.198212c-2.037048,2.104492 -4.386902,3.041168 -6.580627,3.685455c-0.658447,-0.614075 -1.316406,-1.228638 -1.974365,-1.842712c-1.098633,1.280518 -1.806091,1.538971 -3.764832,2.089386c-0.938934,-1.515411 -1.877869,-3.030792 -2.816284,-4.546204c-0.251678,1.960144 -0.503357,2.970886 -0.911682,4.639099c-1.832855,0.626831 -4.917999,0.524017 -7.142548,-0.163177c-0.031311,-3.603363 -0.375458,-7.134125 -1.111237,-10.591278c-0.224884,3.651947 -0.293121,6.793121 -1.613098,9.860687c-2.078491,-0.264099 -6.660431,-2.061554 -8.582794,-3.055786c-0.204132,-3.953339 0.53064,-7.176086 -0.455811,-10.763885c-2.936554,0.05423 -4.680511,0.035828 -8.233612,-0.521179c-1.284088,-2.382263 -1.717651,-10.486877 -1.564545,-13.973541c-1.237091,2.486328 -2.005219,4.899567 -2.303375,7.677826c-8.550446,-6.667633 -13.033386,-12.020966 -15.794586,-17.812439c-3.305969,-1.709473 -5.673004,-1.666504 -9.213959,-1.842712c-11.377899,-12.167084 -27.137115,-25.794373 -43.835266,-37.669403l0,0z"/>
   <path fill="#ff007f" fill-rule="evenodd" stroke-width="1px" id="path3605" d="m217.674774,122.818146c18.099976,3.369415 36.600983,6.835938 53.6362,13.205841c17.186584,6.426483 34.718872,14.557648 49.029388,25.183197c10.368713,7.698853 19.10611,19.446899 25.00827,29.789886c-0.877502,2.764008 -1.754944,5.528015 -2.632446,8.292023c-2.350189,-0.132477 -4.543884,-0.557007 -6.581116,-2.149811c-2.742126,0.204742 -5.484283,0.409546 -8.226379,0.614258c-3.005035,-4.959015 -4.28894,-12.546448 -1.974365,-17.505402c-1.411346,2.250641 -4.85675,3.187073 -6.581116,3.685303c-0.877472,-2.456848 -1.754944,-4.913757 -2.632446,-7.370667c-1.943695,0.569061 -4.669678,0.407959 -7.239258,-0.921295c-0.941956,-3.099731 -3.761597,-6.053436 -6.581116,-7.984924c-1.425873,0.614258 -2.851868,1.228455 -4.27771,1.842651c-23.88678,-17.118927 -50.207489,-31.553223 -80.289734,-43.302795c-0.219391,-1.126068 -0.438751,-2.252167 -0.658173,-3.378265z"/>
   <path fill="#ff007f" fill-rule="evenodd" stroke-width="1px" id="path3583" d="m209.777435,119.439941c3.787384,1.822571 9.596222,5.564697 13.063599,9.323883c7.391479,8.013489 15.869446,19.819763 19.51297,30.771576c3.815063,11.467407 5.427856,19.074829 6.745667,31.001038c-3.45343,-2.732971 -5.627167,-5.683136 -7.568237,-9.827576c-0.693054,2.864868 -1.85141,4.101044 -3.126038,5.988647c-1.610413,-1.115143 -4.382019,-3.532104 -4.365906,-6.928619c0.017151,-3.633026 1.891266,-7.485535 1.673523,-11.228302c-2.993164,-0.954895 -4.590271,-2.018463 -6.536316,-4.167816c0.80658,-2.290924 1.729431,-4.364624 2.419708,-7.524231c-2.260315,-2.742371 -5.218506,-4.398926 -8.525879,-5.621155c-0.721222,-1.638397 -1.442444,-3.276764 -2.163635,-4.915161c-0.291412,-2.339966 0.34787,-4.679962 0.521851,-7.019867c-0.698975,2.27124 -1.39798,4.433838 -2.096985,6.813629c-4.171936,-1.978638 -8.576569,-3.848755 -9.374695,-5.827454c-1.206543,0.716644 -5.554169,1.324677 -6.760773,2.04129c-0.05481,-4.657898 4.082214,-12.452728 3.445679,-19.716522l3.135468,-3.163361z"/>
   <path fill="#ff007f" fill-rule="evenodd" stroke-width="1px" id="path4083" d="m480.792603,409.502563c-19.713989,-24.824585 -42.188965,-49.977478 -65.713501,-72.721375c-17.155304,-16.585999 -88.243958,-69.60611 -109.522644,-84.111389c20.131287,15.770874 91.966309,70.631866 109.835571,87.908142c22.810608,22.053589 44.226257,45.073547 65.400574,68.924622z"/>
   <path fill="#ff007f" fill-rule="evenodd" stroke-width="1px" id="path3205" d="m209.297974,107.966095c6.938232,-13.034454 15.081146,-26.054626 25.186768,-37.881332c-5.07489,8.101807 -9.888916,13.948257 -14.466736,21.873154c-2.807068,4.859467 -7.146698,11.561462 -10.720032,16.008179z"/>
   <path fill="#ff007f" fill-rule="evenodd" stroke-width="1px" id="path4090" d="m203.570221,110.559509c-8.211884,-6.838867 -15.977997,-14.212006 -24.63562,-20.516571c-8.397797,-6.115387 -17.687103,-11.162262 -26.53067,-16.743423c8.338196,5.620483 16.910583,10.959824 25.014618,16.861343c8.951416,6.518463 17.434448,13.599121 26.151672,20.398651z"/>
   <path fill="#ff007f" fill-rule="evenodd" stroke-width="1px" id="path3804" d="m188.409851,122.468567c-2.274078,2.908508 -5.15448,5.536591 -6.822174,8.725433c-1.785492,3.414215 -2.358276,7.38916 -3.537445,11.083679c0.926514,-4.087585 0.887512,-8.645172 2.779419,-12.262787c1.56131,-2.985443 5.053467,-5.030853 7.5802,-7.546326z"/>
   <path fill="#ff007f" fill-rule="evenodd" stroke-width="1px" id="path3814" d="m203.570221,120.582001l-3.7901,-0.943298l-5.053467,1.179108l3.28476,-2.829865l1.263367,-2.829895l2.779419,2.594055l1.516022,2.829895z"/>
   <path fill="#ff007f" fill-rule="evenodd" stroke-width="1px" id="path3816" d="m205.086273,121.053619l2.779388,2.829895l-1.516022,3.065674l5.306122,0.23584l0.505341,-5.65976l-7.074829,-0.471649z"/>
   <path fill="#ff007f" fill-rule="evenodd" stroke-width="1px" id="path3818" d="m202.55954,123.647675l-1.516052,6.367218l2.021393,-0.707458l0.758026,2.829865l5.306122,1.179108l-2.274048,-4.952271l-4.295441,-4.716461z"/>
   <path fill="#ff007f" fill-rule="evenodd" stroke-width="1px" id="path3820" d="m200.032806,121.761108l-5.053467,-1.886597l0.758026,1.650757l-3.28476,0.471649l-1.516022,3.301514l2.779388,-2.594055l0,3.065704l2.526733,-2.358215l3.7901,-1.650757z"/>
   <path fill="#ff007f" fill-rule="evenodd" stroke-width="1px" id="path3301" d="m203.044647,118.471436l-3.573334,-5.669586l-4.466675,-4.002014l1.786682,-1.000519l0.17868,-5.33606l-1.965363,-1.834259l2.679993,-4.002075l5.717346,5.669586l1.786652,0l2.680054,3.668549l-1.965363,5.335999l-1.071991,7.003662l-1.786682,0.166718z"/>
   <path fill="#ff007f" fill-rule="evenodd" stroke-width="1px" id="path3303" d="m204.473969,119.305237l-1.965332,-5.669617l1.965332,-4.002014l2.679993,1.834259l-2.143951,3.168304l1.072021,5.669525l-1.608063,-1.000458z"/>
   <path fill="#ff007f" fill-rule="evenodd" stroke-width="1px" id="path3822" d="m202.812195,121.053619l5.306152,-4.008972l1.010681,-3.301514l-4.295441,2.594055l-2.021393,-0.471649l0,5.18808z"/>
   <path fill="#ff007f" fill-rule="evenodd" stroke-width="1px" id="path3824" d="m201.296173,121.996918l-2.526733,2.122406l1.263367,4.244812l3.7901,-2.358215l0,-4.480652l-2.526733,0.471649z"/>
   <path fill="#ff007f" fill-rule="evenodd" stroke-width="1px" id="path3305" d="m207.511353,119.80542l3.215973,-3.668488l3.216003,0l0.714661,-1.167297l3.751953,1.500763l-2.501282,3.001495l-9.29068,2.167786l0.893372,-1.834259z"/>
   <path fill="#ff007f" fill-rule="evenodd" stroke-width="1px" id="path5087" d="m204.116669,120.138947l2.679993,-0.500244l0.17868,2.66803l-0.53598,2.501251l-2.144043,-2.167786l-1.072021,-0.333466l0.893372,-2.167786z"/>
  </g>
  <title>Layer 1</title>
 </g>
</svg>